<svg width="1360" height="1360" viewBox="0 0 1360 1360" fill="none" xmlns="http://www.w3.org/2000/svg">
<g clip-path="url(#clip0_211_11301)">
<path d="M1360 0H0V1360H1360V0Z" fill="#A8EFE3"/>
<path d="M1323.1 440.3C1134.1 440.3 1008.5 346.2 950.4 290.1C947.6 287.4 927.2 266.1 922.7 260L910.9 268.7C916.3 276.1 937.7 298.2 940.2 300.6C999.8 358.2 1128.9 454.9 1323.1 454.9C1335.4 454.9 1347.7 454.5 1360 453.7V439C1347.8 439.9 1335.5 440.3 1323.1 440.3Z" fill="#5DC9B5"/>
<path d="M992.5 344.4C978.7 347.2 970 362.5 970 362.5C970 362.5 983.8 373.4 997.7 370.6C1011.6 367.8 1020.2 352.5 1020.2 352.5C1020.2 352.5 1006.3 341.6 992.5 344.4Z" fill="#5DC9B5"/>
<path d="M1297.7 424.8C1285.8 417.2 1269 422.1 1269 422.1C1269 422.1 1271.4 439.5 1283.2 447.2C1295.1 454.9 1311.9 449.9 1311.9 449.9C1311.9 449.9 1309.6 432.4 1297.7 424.8Z" fill="#5DC9B5"/>
<path d="M1151 383C1151 383 1144 399.2 1150.3 411.8C1156.5 424.5 1173.5 428.9 1173.5 428.9C1173.5 428.9 1180.5 412.7 1174.2 400.1C1168 387.5 1151 383 1151 383Z" fill="#5DC9B5"/>
<path d="M1082.1 406.1C1069.8 413.1 1066.4 430.3 1066.4 430.3C1066.4 430.3 1083 436.3 1095.2 429.3C1107.5 422.3 1110.9 405.1 1110.9 405.1C1110.9 405.1 1094.4 399.1 1082.1 406.1Z" fill="#5DC9B5"/>
<path d="M450.9 242.2C453.4 239.8 474.8 217.7 480.2 210.3L468.4 201.6C463.9 207.7 443.5 229 440.7 231.7C382.6 287.8 257 381.9 68.0004 381.9C45.2004 381.9 22.5004 380.5 -0.0996094 377.7V392.4C22.4004 395.1 45.1004 396.5 68.0004 396.5C262.2 396.6 391.3 299.9 450.9 242.2Z" fill="#5DC9B5"/>
<path d="M398.7 286C384.9 283.2 371 294.1 371 294.1C371 294.1 379.6 309.4 393.5 312.2C407.3 315 421.2 304.1 421.2 304.1C421.2 304.1 412.6 288.8 398.7 286Z" fill="#5DC9B5"/>
<path d="M93.4002 366.4C81.5002 374 79.2002 391.5 79.2002 391.5C79.2002 391.5 96.0002 396.5 107.9 388.8C119.8 381.2 122.1 363.7 122.1 363.7C122.1 363.7 105.3 358.7 93.4002 366.4Z" fill="#5DC9B5"/>
<path d="M216.901 341.8C210.601 354.5 217.601 370.6 217.601 370.6C217.601 370.6 234.601 366.2 240.801 353.5C247.101 340.8 240.101 324.7 240.101 324.7C240.101 324.7 223.201 329.1 216.901 341.8Z" fill="#5DC9B5"/>
<path d="M309.101 347.7C296.801 340.7 280.301 346.7 280.301 346.7C280.301 346.7 283.701 364 296.001 370.9C308.301 377.9 324.801 371.9 324.801 371.9C324.801 371.9 321.301 354.7 309.101 347.7Z" fill="#5DC9B5"/>
<path d="M1065.1 942.3C1026.8 851.6 931.8 635.4 807 635.4C748 635.4 694.9 683.8 651.3 744.5C645.9 741.6 607.4 721.2 562.8 738.7C516.5 756.7 502.2 800.3 500.5 805.6C362.4 779.7 187.5 798.7 0 885.4V1005.7C66.6 1017.7 132.2 1026.4 132.2 1026.4L1065.1 942.3Z" fill="#85E0CE"/>
<path d="M430.8 989.7C430.8 989.7 353.6 804.4 293.8 813.5C278 815.9 263.6 831.8 250.9 854C186.9 728.9 103.6 609 19.6 609C13 609 6.5 609.7 0 611.1V1036.1L193.8 1025.9L430.8 989.7Z" fill="#85E0CE"/>
<path d="M981.7 925.9L1219.8 1006.2L1360 971.4V802.8C1328.3 790.6 1295.6 783.3 1262.8 783.3C1157.9 783.4 1053.8 858.7 981.7 925.9Z" fill="#85E0CE"/>
<path d="M1088.7 1010.1L1360 1097.1V907.5C1243 919.5 1150.2 968.8 1088.7 1010.1Z" fill="#5DC9B5"/>
<path d="M782.4 1009.3C725.3 963.5 637.7 908.3 526.8 899.6C439 892.5 392.1 927.2 320.8 927.2C176.2 927.1 110.9 825.8 0 795V1177.9H342.9L782.4 1009.3Z" fill="#5DC9B5"/>
<path d="M909.3 922.8C651.8 907.9 558.9 1010.1 470.5 1079.5L897.2 1110.3L1287.5 1079.5C1199 983 1063.9 931.8 909.3 922.8Z" fill="#5DC9B5"/>
<path d="M0 0V343.7C12.7 347 26.1 348.3 39.9 347.4C70.2 345.4 97.3 332.8 117.8 313.5C135.6 321.3 155.6 325 176.3 323.6C200.6 322 235 307 250.9 274C260.4 277.5 270.8 279.5 281.5 279.5C307.7 279.5 331.3 268 347.4 249.7C351.2 255.5 357.7 259.5 365.2 259.5C374.6 259.5 382.5 253.4 385.2 244.9C402.4 257.1 423.3 264.3 445.9 264.3C458.7 264.3 473.3 260.4 485.1 255.9C496 281 521.1 298.6 550.2 298.6C564.9 298.6 578.5 294.1 589.8 286.6C607.3 320.4 642.5 343.4 683.1 343.4C702.6 343.4 720.8 338.1 736.4 328.8C748.9 348.3 770.6 361.2 795.5 361.2C812.9 361.2 828.8 354.9 841 344.4C848.3 360.7 866.5 370.2 866.5 370.2C866.5 370.2 880.2 351.4 877.5 332.3C888.7 335.9 900.7 333.4 900.7 333.4C900.7 333.4 900 321.2 893.7 311.3C923.6 305 948.9 286 963.5 260.1C981.5 292 1015.7 313.6 1055 313.6C1061.7 313.6 1068.2 312.9 1074.5 311.8C1071.2 320.6 1073.4 330.5 1073.4 330.5C1073.4 330.5 1082.8 329.8 1090 324.7C1089.9 325.5 1089.9 326.4 1089.9 327.2C1089.9 346.6 1108.2 362.3 1108.2 362.3C1108.2 362.3 1123.1 349.4 1126 332.6C1131.9 334.8 1138.3 336.1 1145 336.1C1166.5 336.1 1185.1 323.4 1193.6 305C1199.6 307.3 1206.1 308.6 1212.9 308.6C1241.3 308.6 1264.5 286.5 1266.3 258.6C1274.7 264 1284.7 267.2 1295.4 267.2C1304.7 267.2 1313.4 264.8 1321 260.7C1326.7 280.4 1341.2 296.4 1359.9 304.2V0H0Z" fill="#13C99A"/>
<path d="M575.301 286.6C565.501 296.8 567.101 314.3 567.101 314.3C567.101 314.3 584.701 315.4 594.501 305.2C604.401 295 602.701 277.5 602.701 277.5C602.701 277.5 585.101 276.4 575.301 286.6Z" fill="#13C99A"/>
<path d="M584 299.8C582.7 313.9 594.8 326.6 594.8 326.6C594.8 326.6 609.2 316.5 610.6 302.4C612 288.3 599.8 275.6 599.8 275.6C599.8 275.6 585.4 285.7 584 299.8Z" fill="#13C99A"/>
<path d="M0 129.1C18.7 121.3 33.2 105.3 38.9 85.6C46.5 89.7 55.2 92.1 64.5 92.1C75.2 92.1 85.2 88.9 93.6 83.5C95.4 111.5 118.7 133.5 147 133.5C153.8 133.5 160.3 132.2 166.3 129.9C174.8 148.3 193.4 161 214.9 161C221.6 161 228 159.7 233.9 157.5C236.8 174.3 251.7 187.2 251.7 187.2C251.7 187.2 270 171.5 270 152.1C270 151.3 269.9 150.4 269.9 149.6C277.1 154.7 286.5 155.4 286.5 155.4C286.5 155.4 288.8 145.4 285.4 136.7C291.7 137.9 298.2 138.5 304.9 138.5C344.1 138.5 378.4 116.9 396.4 85C411 110.9 436.2 129.9 466.2 136.2C459.8 146.2 459.2 158.3 459.2 158.3C459.2 158.3 471.2 160.8 482.4 157.2C479.7 176.3 493.4 195.1 493.4 195.1C493.4 195.1 511.6 185.6 518.9 169.3C531.1 179.8 547 186.1 564.4 186.1C589.3 186.1 611 173.2 623.5 153.7C639.1 162.9 657.3 168.3 676.8 168.3C706.3 168.3 733 156.1 752.1 136.4C756.7 145.5 765.1 151.4 765.1 151.4C765.1 151.4 771.3 144.9 774.4 136C783.3 139.7 792.8 139.2 792.8 139.2C792.8 139.2 793.6 129.8 790.3 120.8C796.5 122.6 803 123.5 809.8 123.5C838.9 123.5 864 105.9 874.9 80.8C886.7 85.3 901.3 89.2 914.1 89.2C936.7 89.2 957.6 82 974.8 69.8C977.5 78.3 985.5 84.4 994.8 84.4C1002.3 84.4 1008.8 80.5 1012.6 74.6C1028.7 92.9 1052.3 104.4 1078.5 104.4C1089.2 104.4 1099.6 102.4 1109.1 98.9C1125 131.9 1159.4 146.9 1183.7 148.5C1204.5 149.9 1224.4 146.1 1242.2 138.4C1262.7 157.7 1289.8 170.2 1320.1 172.3C1333.9 173.2 1347.3 171.9 1360 168.6V0H0V129.1Z" fill="#08BC95"/>
<path d="M955.001 922.4C944.101 921.9 923.301 922.5 911.801 923.4C961.801 942.9 994.101 972.6 994.001 998C993.901 1012.1 981.201 1026.2 959.401 1038.3L998.901 1052.5L1039.2 1038.3C1047.1 1027.6 1051.6 1015.9 1051.7 1003.3C1051.9 975.8 1013.5 940.3 955.001 922.4Z" fill="#7BDACA"/>
<path d="M373.7 605.8C371.4 605.8 369.1 606.3 366.9 607.2C365.9 603.1 363.6 599.5 360.4 597C357.2 594.4 353.3 593 349.2 592.9C346.9 592.9 344.6 593.4 342.4 594.3C341.4 590.2 339.1 586.6 335.9 584C332.7 581.4 328.8 580 324.7 580C320.6 580 316.7 581.4 313.5 584C310.3 586.6 308 590.2 307 594.3C304.8 593.4 302.5 592.9 300.2 592.9C296.1 593 292.2 594.4 289 597C285.8 599.6 283.5 603.2 282.5 607.2C280.4 606.3 278.1 605.8 275.7 605.8C271.2 605.9 266.9 607.6 263.6 610.7C260.3 613.8 258.1 618 257.5 622.6H391.8C391.2 618 389 613.8 385.7 610.7C382.4 607.6 378.1 605.9 373.7 605.8Z" fill="#CBFBF2"/>
<path d="M1086.7 519.9C1083.9 519.9 1081.1 520.4 1078.6 521.3C1078.3 502.9 1063.2 488 1044.7 488C1032.1 488 1021.1 494.9 1015.3 505.1C1012.5 504 1009.5 503.3 1006.3 503.3C995.201 503.3 985.801 511 982.801 521.6C980.001 520.5 977.001 519.8 973.801 519.8C961.601 519.8 951.401 529.1 949.601 541.3H1111C1109.1 529.2 1099 519.9 1086.7 519.9Z" fill="#CBFBF2"/>
<path d="M1204.4 588C1196.5 588 1189.7 592.7 1186.4 599.6C1186.2 599.5 1186.1 599.4 1186.1 599.4C1184.7 598.8 1183.2 598.5 1181.6 598.5C1175.5 598.5 1170.5 603.1 1169.9 609H1224.6C1224.6 597.4 1215.6 588 1204.4 588Z" fill="#CBFBF2"/>
<path d="M201.8 451.3C185.5 451.3 171.4 461.1 164.5 475.3C164.1 475 164 474.9 164 474.9C161.1 473.7 158 473.1 154.7 473.1C142.1 473.1 131.8 482.6 130.4 494.8H243.4C243.5 470.7 224.8 451.3 201.8 451.3Z" fill="#CBFBF2"/>
<path d="M1360 1035.1H0V1360H1360V1035.1Z" fill="#13C99A"/>
<path d="M266.9 951C163.4 951 61.1 1015.8 0 1063.2V1112.3H591C590.8 1112.3 430.4 951 266.9 951Z" fill="#13C99A"/>
<path d="M597.2 951C493.6 951 391.9 1061.4 391.9 1061.4H802.7C802.6 1061.3 700.9 951 597.2 951Z" fill="#13C99A"/>
<path d="M1360 1095.3C1339.2 1108 1323.1 1127.2 1314.2 1150.1C1301.9 1131.5 1277.9 1124.5 1257.6 1133.5C1237.2 1142.5 1226.3 1165.2 1231.8 1186.9C1202.9 1173.2 1168.2 1180.6 1147.5 1204.9C1126.7 1229.2 1124.7 1264.8 1142.8 1291.3C1138 1291.7 1109.1 1294.9 1090.1 1320.3C1079 1335.2 1076.3 1350.8 1075.8 1360H1360V1095.3Z" fill="#00AB97"/>
<path d="M1242.5 1282.3C1230.2 1273.4 1212 1277.8 1212 1277.8C1212 1277.8 1213.6 1296.7 1225.8 1305.6C1238 1314.5 1256.3 1310.1 1256.3 1310.1C1256.3 1310.1 1254.7 1291.2 1242.5 1282.3Z" fill="#089B90"/>
<path d="M1269.2 1257.2C1267.7 1280 1287.7 1299.9 1287.7 1299.9C1287.7 1299.9 1310.3 1282.9 1311.8 1260.1C1313.3 1237.3 1293.3 1217.4 1293.3 1217.4C1293.3 1217.4 1270.8 1234.4 1269.2 1257.2Z" fill="#089B90"/>
<path d="M0 1360H870.8C770.5 1268.1 503.3 1115.2 0 1101.6V1360Z" fill="#08BC95"/>
<path d="M294.3 1333C301.1 1310.5 293.4 1286 274.9 1271.6C256.8 1257.5 231.7 1255.8 211.7 1267.3C216.7 1249.6 208.6 1230.6 192.3 1221.9C176 1213.3 155.7 1217.2 143.9 1231.3C133.9 1192.4 99.7 1164.2 59.7 1161.7C38 1160.3 17 1166.7 0 1178.7V1360H326.7C325.4 1357.2 323.7 1354.3 321.5 1351.4C311.6 1338.2 298.4 1334.1 294.3 1333Z" fill="#00AB97"/>
<path d="M81.5 1241.7C72.1 1254.8 76.8 1274.3 76.8 1274.3C76.8 1274.3 96.8 1272.5 106.2 1259.4C115.6 1246.3 110.9 1226.8 110.9 1226.8C110.9 1226.8 90.9 1228.6 81.5 1241.7Z" fill="#089B90"/>
<path d="M39.2002 1232.5C39.2002 1232.5 33.2002 1244.4 37.2002 1254.4C41.3002 1264.4 54.0002 1268.6 54.0002 1268.6C54.0002 1268.6 60.1002 1256.7 56.0002 1246.7C51.9002 1236.7 39.2002 1232.5 39.2002 1232.5Z" fill="#089B90"/>
<path d="M101.001 1299.8C95.5008 1305.5 94.2008 1313.8 93.9008 1319.2C93.7008 1322.4 94.0008 1324.5 94.0008 1324.5C94.0008 1324.5 109.601 1325.3 118.301 1316.1C123.801 1310.3 125.101 1302 125.401 1296.6C125.601 1293.5 125.301 1291.4 125.301 1291.4C125.301 1291.4 109.601 1290.7 101.001 1299.8Z" fill="#089B90"/>
<path d="M174.2 1304.2C159 1309.5 151.7 1328.2 151.7 1328.2C151.7 1328.2 162.5 1334.4 174.6 1334.4C177.8 1334.4 181.1 1334 184.3 1332.8C199.5 1327.5 206.8 1308.8 206.8 1308.8C206.8 1308.8 196 1302.5 183.9 1302.5C180.7 1302.7 177.4 1303.1 174.2 1304.2Z" fill="#089B90"/>
<path d="M500.5 1313.2C497.7 1310.7 493.6 1310.5 488.5 1314.8C488.6 1314.4 488.8 1313.9 488.9 1313.5C492.7 1302 490 1296.4 485 1294.8C480 1293.2 474.5 1296.1 470.7 1307.6C470.6 1308 470.4 1308.5 470.3 1308.9C468.6 1302.4 465.9 1298.1 461.6 1298.5C457.3 1298.9 454.6 1303.2 454.4 1310.7C454.1 1309.8 453.8 1309 453.5 1308.1C451 1301.8 444.2 1296.9 439.7 1298.6C435.2 1300.3 434.3 1307.2 437.3 1314.3L437.8 1315.5C432.9 1311.9 428.2 1311.8 425.8 1314.1C422.8 1317 423.9 1322.3 430.5 1329.1C431.5 1330.1 432.7 1331.1 433.8 1332H494.4C495.3 1331.1 496.3 1330.2 497.1 1329.3C504.2 1321.7 504 1316.3 500.5 1313.2Z" fill="#13C99A"/>
<path d="M1148.1 1097.2C1146.6 1095.9 1144.4 1095.8 1141.5 1098.1C1141.6 1097.9 1141.7 1097.6 1141.7 1097.4C1143.8 1091.1 1142.3 1088.1 1139.6 1087.2C1136.9 1086.3 1133.9 1087.9 1131.8 1094.2C1131.7 1094.4 1131.7 1094.7 1131.6 1094.9C1130.7 1091.4 1129.2 1089 1126.8 1089.3C1124.5 1089.5 1123 1091.9 1122.9 1095.9C1122.8 1095.4 1122.6 1095 1122.4 1094.5C1121 1091.1 1117.3 1088.4 1114.9 1089.3C1112.5 1090.2 1112 1094 1113.6 1097.9L1113.9 1098.5C1111.2 1096.6 1108.7 1096.5 1107.4 1097.8C1105.8 1099.4 1106.4 1102.3 1110 1106C1110.6 1106.6 1111.2 1107.1 1111.8 1107.6H1144.8C1145.3 1107.1 1145.8 1106.6 1146.3 1106.1C1150.1 1101.8 1150 1098.9 1148.1 1097.2Z" fill="#85E0CE"/>
<path d="M1019 1133C1017.5 1131.7 1015.3 1131.6 1012.4 1133.9C1012.5 1133.7 1012.6 1133.4 1012.6 1133.2C1014.7 1126.9 1013.2 1123.9 1010.5 1123C1007.8 1122.1 1004.8 1123.7 1002.7 1130C1002.6 1130.2 1002.6 1130.5 1002.5 1130.7C1001.6 1127.2 1000.1 1124.8 997.701 1125.1C995.401 1125.3 993.901 1127.7 993.801 1131.7C993.701 1131.2 993.501 1130.8 993.301 1130.3C991.901 1126.9 988.201 1124.2 985.801 1125.1C983.401 1126 982.901 1129.8 984.501 1133.7L984.801 1134.3C982.101 1132.4 979.601 1132.3 978.301 1133.6C976.701 1135.2 977.301 1138.1 980.901 1141.8C981.501 1142.4 982.101 1142.9 982.701 1143.4H1015.7C1016.2 1142.9 1016.7 1142.4 1017.2 1141.9C1021 1137.6 1020.9 1134.7 1019 1133Z" fill="#85E0CE"/>
<path d="M368.5 1217.4C365.7 1214.9 361.6 1214.7 356.5 1219C356.6 1218.6 356.8 1218.1 356.9 1217.7C360.7 1206.2 358 1200.6 353 1199C348 1197.4 342.5 1200.3 338.7 1211.8C338.6 1212.2 338.4 1212.7 338.3 1213.1C336.6 1206.6 333.9 1202.3 329.6 1202.7C325.3 1203.1 322.6 1207.4 322.4 1214.9C322.1 1214 321.8 1213.2 321.5 1212.3C319 1206 312.2 1201.1 307.7 1202.8C303.2 1204.5 302.3 1211.4 305.3 1218.5L305.8 1219.7C300.9 1216.1 296.2 1216 293.8 1218.3C290.8 1221.2 291.9 1226.5 298.5 1233.3C299.5 1234.3 300.7 1235.3 301.8 1236.2H362.4C363.3 1235.3 364.3 1234.4 365.1 1233.5C372.1 1225.9 371.9 1220.5 368.5 1217.4Z" fill="#13C99A"/>
</g>
<defs>
<clipPath id="clip0_211_11301">
<rect width="1360" height="1360" fill="white"/>
</clipPath>
</defs>
</svg>
