<svg width="1360" height="1360" viewBox="0 0 1360 1360" fill="none" xmlns="http://www.w3.org/2000/svg">
<g clip-path="url(#clip0_245_12024)">
<path d="M1360 0H0V1360H1360V0Z" fill="#B9F2FF"/>
<path opacity="0.53" d="M1360 771.8C1240.1 738.2 1045.8 739.4 894 844.6C767.6 825.6 681 853 614 897.9C562.7 872.8 460.1 832.5 391.8 832.5C337.8 832.5 273.5 836.4 201.2 877.6C149.8 739.4 76.3 651.8 0 638.6V1149.3H226.1L493.2 1051.2L853.3 1076.1L1294.9 1042.7C1292.1 1039.7 1289.2 1036.8 1286.3 1033.9L1360.1 1056.6V771.8H1360Z" fill="#99E5FF"/>
<path opacity="0.37" d="M1271.5 540.4C1265.8 540.4 1260.3 541.4 1255.1 543.3C1254.5 506.1 1224.2 476.2 1186.9 476.2C1161.5 476.2 1139.3 490.1 1127.6 510.7C1122 508.4 1115.9 507.1 1109.5 507.1C1087.1 507.1 1068.2 522.6 1062.1 544C1056.5 541.7 1050.4 540.4 1044 540.4C1019.4 540.4 999 559.2 995.2 583.8H1320.2C1316.6 559.2 1296.2 540.4 1271.5 540.4Z" fill="white"/>
<path opacity="0.37" d="M289.4 246.1C284.9 246.1 280.6 246.9 276.5 248.4C276 219.1 252.2 195.6 222.8 195.6C202.8 195.6 185.4 206.5 176.1 222.8C171.7 221 166.9 220 161.8 220C144.2 220 129.3 232.2 124.5 249C120.1 247.2 115.3 246.2 110.2 246.2C90.7998 246.2 74.6998 261 71.7998 280.3H327.7C324.9 260.8 308.8 246.1 289.4 246.1Z" fill="white"/>
<path d="M1360 1360V922.2C1202.9 925.3 977.3 935.4 793.6 966.7C548.3 1008.5 183.7 968.7 0 932.3V1360H1360Z" fill="#9AE4FC"/>
<path opacity="0.74" d="M227.8 984.8H227.7C214.2 984.8 202.1 994.5 196.9 1009.3H258.6C253.4 994.5 241.3 984.9 227.8 984.8Z" fill="#76D1FF"/>
<path opacity="0.74" d="M1134.5 1003.6H1134.4C1120.9 1003.6 1108.8 1013.3 1103.6 1028.1H1165.3C1160.1 1013.3 1148 1003.7 1134.5 1003.6Z" fill="#76D1FF"/>
<path d="M1293.7 990C1285.9 990 1279 995.5 1276 1004H1311.3C1308.3 995.6 1301.4 990.1 1293.7 990Z" fill="#76DFFF"/>
<path opacity="0.74" d="M1001.7 1019.9C994.5 1019.9 988.1 1025 985.4 1032.8H1018C1015.2 1025 1008.8 1019.9 1001.7 1019.9Z" fill="#76D1FF"/>
<path opacity="0.74" d="M1264.3 950.8H1264.2C1251.3 950.8 1239.8 960 1234.9 974.1H1293.7C1288.7 960.1 1277.1 950.9 1264.3 950.8Z" fill="#76D1FF"/>
<path opacity="0.74" d="M277.9 965.5C270.3 965.5 263.5 970.9 260.6 979.2H295.1C292.2 970.9 285.4 965.5 277.9 965.5Z" fill="#76D1FF"/>
<path opacity="0.74" d="M186.9 1130.8C192.4 1095 218.6 1070.2 218.6 1070.2C218.6 1070.2 140.3 1096.9 126.6 1168.5L236.8 1137C255.7 1114.1 281 1104.2 281 1104.2C281 1104.2 228.3 1101 186.9 1130.8Z" fill="#76D1FF"/>
<path d="M508.5 0C492.1 10.6 483.8 30.9 525.2 56.9C419.5 129.7 530.1 158.9 550.1 173.7C509 227.7 592 259.6 624.8 209.6C623.2 241.2 639.2 264.1 661.9 271.7C672.2 275.1 683.9 275.4 696 271.9C709 268.1 722.6 260 735.3 246.7C706.9 317.8 804.1 336.9 824.3 275.2C824.3 275.2 860.4 357.1 932.2 299.5C949 390.3 988.6 389.5 1005.1 390.2C1021.5 390.9 1082.4 354.6 1095.3 267.8C1096.1 262.5 1096.7 256.8 1097.3 250.7C1110.8 262.4 1264.4 276.6 1309.9 217.6C1311.5 224.4 1315.4 230 1320.9 234.4C1321.1 234.6 1321.3 234.7 1321.5 234.9C1331.1 242.4 1345.1 246.4 1360 246.6V0H508.5Z" fill="#9FEAFC"/>
<path opacity="0.74" d="M1360 100.2C1360 100.2 1360 146.7 1318.9 137.4C1314.6 150.2 1309 161.9 1302 172.5C1284.8 198.5 1259.5 217.2 1225.5 228.2C1168.6 242 1119.6 229.7 1079.5 207C1069.5 201.4 1060.1 195.1 1051.3 188.4C1028.8 171.5 1010 152 995.1 133.9C946.3 138.7 928.2 100.3 928.2 100.3C934 114.2 940.1 126.9 946.4 138.6C953.5 151.9 960.9 163.8 968.5 174.6C979.3 189.9 990.6 202.8 1002.2 213.8C1032.5 242.6 1064.6 257.9 1095.4 268C1147 284.8 1194.8 286.7 1224.2 311.9C1229.3 316.3 1234.1 320.3 1238.7 324.1C1196.9 332.7 1157.9 323.4 1157.9 323.4L1151.6 356.6C1151.6 356.6 1213.7 386.3 1312.8 369.1C1313.5 369.4 1314.2 369.6 1314.9 369.9C1317.2 370.8 1319.5 371.7 1321.9 372.5C1323 372.9 1324.1 373.3 1325.2 373.7C1326.3 374.1 1327.5 374.5 1328.6 374.9C1329.8 375.3 1330.9 375.7 1332.1 376.1C1332.5 376.3 1333 376.4 1333.4 376.5C1335.3 377.1 1337.2 377.8 1339.2 378.4C1339.3 378.4 1339.3 378.4 1339.4 378.4C1345.9 380.5 1352.8 382.7 1360.3 384.9V276.8C1359.4 276.3 1358.6 275.9 1357.7 275.4C1357.1 275.1 1356.6 274.8 1356 274.5C1355.5 274.2 1355 273.9 1354.5 273.6C1351.9 272 1349.4 270.4 1347 268.6C1346.6 268.3 1346.3 268.1 1345.9 267.8C1342.6 265.3 1339.6 262.6 1336.8 259.7C1336.3 259.2 1335.8 258.7 1335.4 258.1C1334.2 256.7 1333 255.4 1331.9 253.9C1331.5 253.3 1331 252.7 1330.6 252.2C1330.6 252.2 1330.6 252.1 1330.5 252.1C1330 251.4 1329.6 250.8 1329.1 250.1C1329.1 250 1329 250 1329 250C1328.6 249.4 1328.2 248.7 1327.8 248C1327.4 247.3 1327 246.6 1326.6 245.9C1325.9 244.6 1325.2 243.3 1324.6 242C1324.4 241.6 1324.2 241.2 1324 240.7C1323.7 240.1 1323.5 239.5 1323.2 238.9C1322.9 238.2 1322.6 237.4 1322.3 236.6C1322.3 236.5 1322.2 236.4 1322.2 236.3C1322 235.9 1321.9 235.4 1321.7 234.9C1321.6 234.6 1321.5 234.2 1321.4 233.9C1339.6 213 1352 191.5 1360.3 170.5V100.2H1360Z" fill="#76D8FF"/>
<path d="M861.7 291.4C861.7 291.4 914.8 277.5 895.5 232C850.7 241.1 861.7 291.4 861.7 291.4Z" fill="#9FEAFC"/>
<path d="M915.4 214.9C899.1 257.6 947.5 275.2 947.5 275.2C947.5 275.2 964.1 223 915.4 214.9Z" fill="#9FEAFC"/>
<path d="M704.2 289.9C704.2 289.9 758.301 280.6 742.901 233.6C697.501 238.8 704.2 289.9 704.2 289.9Z" fill="#9FEAFC"/>
<path d="M508.2 190.5C508.2 190.5 556.6 216.3 573.3 169.8C534.3 146 508.2 190.5 508.2 190.5Z" fill="#9FEAFC"/>
<path d="M671.9 152.9C671.9 152.9 711.8 173.3 724.8 135.1C692.6 116.2 671.9 152.9 671.9 152.9Z" fill="#9FEEFC"/>
<path d="M745.2 187C745.2 187 783.8 164.2 758.5 132.8C725.3 149.9 745.2 187 745.2 187Z" fill="#9FEEFC"/>
<path opacity="0.74" d="M1360 1360V1099.1C1278.6 1092.6 1200 1087.5 1127.9 1084.2V1083.6C1055.4 1080.5 990.2 1079.4 936.3 1080.8C938.7 1062.2 950.3 1045.8 951.1 1044.8C949.4 1045.1 913.5 1052.3 906.4 1076.4C894.1 1028.8 842.6 1026.5 842.6 1026.5C866 1041.7 871.2 1062.3 872.9 1076.2C856.8 1047.9 825.8 1053.2 825.8 1053.2C825.8 1053.2 848.2 1058.4 857.1 1079.8L857.3 1080.4C762.3 1081.5 686.6 1096.4 482.7 1119.3C334.5 1136 174.3 1144 0 1132.4V1360H1360Z" fill="#76D1FF"/>
<path opacity="0.37" d="M392.7 44.4999C373.5 40.9999 352.7 52.5999 356.8 63.8999C356.8 63.8999 319.7 44.2999 298.6 71.0999C292.2 79.2999 296.3 92.2999 296.3 92.2999H440.4C440.3 92.3999 428.7 51.0999 392.7 44.4999Z" fill="white"/>
<path opacity="0.74" d="M708.3 1323C708.3 1323 648.1 1348.7 551.9 1344.5C622.1 1292.7 642.9 1244.7 642.9 1244.7C642.9 1244.7 608 1267.9 441.6 1298.8C470.5 1258.2 472.3 1215.3 472.3 1215.3C472.3 1215.3 441.8 1267.5 344.5 1296.9C329.7 1301.4 317.6 1307.4 307.6 1314.3C341.9 1257.7 331.7 1201.4 331.7 1201.4C331.7 1201.4 310.6 1245.3 262.3 1275.6C244.1 1287 234.5 1298.7 229.6 1308.8C219.2 1281 174.3 1259.3 156.6 1259.1C156.6 1259.1 165.2 1269.5 166.8 1305.2C112 1255.6 46.5 1255.5 0 1268.3V1360H679.8C700.3 1340.1 708.3 1323 708.3 1323Z" fill="#5BB7FF"/>
<path opacity="0.74" d="M1360 1329C1288.2 1306.4 1220.6 1281.4 1123.4 1281.4C1035.8 1281.4 973.1 1323.3 935.1 1360H1360V1329Z" fill="#5BB7FF"/>
</g>
<defs>
<clipPath id="clip0_245_12024">
<rect width="1360" height="1360" fill="white"/>
</clipPath>
</defs>
</svg>
