<svg width="1360" height="1360" viewBox="0 0 1360 1360" fill="none" xmlns="http://www.w3.org/2000/svg">
<g clip-path="url(#clip0_245_11526)">
<path d="M1360 0H0V1360H1360V0Z" fill="#FFF4CF"/>
<path d="M0.0996094 855.8V916.8L60.3996 924.2C44.0996 908.8 17.4996 886.3 0.0996094 855.8Z" fill="#FFE0AC"/>
<path d="M1278.1 1080C1253.1 1076.1 1229.1 1087.5 1217.1 1106.8C1213.3 1098.3 1205.1 1091.7 1194.6 1090.1C1184.1 1088.5 1174 1092.2 1167.5 1099.2C1163.6 1074.1 1139.1 1054.7 1109.5 1054.7C1102.1 1054.7 1095 1055.9 1088.5 1058.1C1079.5 1039.9 1058.9 1027.1 1034.8 1027.1C1009.4 1027.1 987.8 1041.3 979.7 1061.2C975.3 1056.4 968.1 1054 960.8 1055.6C950.9 1057.7 944.4 1066.2 945.9 1075C936.8 1073.8 927.3 1074.6 918 1077.7C894.1 1085.6 879 1106.4 878.4 1128.8C870.7 1123 860.1 1121 850.1 1124.3C835.7 1129.1 827.7 1143.2 831.1 1156.9C824.6 1156 817.8 1156.5 811.1 1158.7C789.6 1165.8 778.3 1187.9 785.8 1208C779.2 1212.4 773.9 1218.2 770.5 1225.2C766.8 1232.6 756.5 1317 757.7 1325.1L1334.1 1285.6V1137C1331.8 1137.5 1329.6 1138.2 1327.5 1139.1C1330 1110.7 1308.8 1084.8 1278.1 1080Z" fill="#FFF1C9"/>
<path d="M875.5 1015.5L1302.2 1046.3L1360.2 1041.6V862.9C1344.7 861.1 1330.3 859.7 1314.3 858.8C1056.8 843.9 963.9 946.1 875.5 1015.5Z" fill="#FFE0AC"/>
<path d="M1213 864.6C1202.1 864.1 1181.3 864.7 1169.8 865.6C1219.8 885.1 1252.1 914.8 1252 940.2C1251.9 954.3 1239.2 968.4 1217.4 980.5L1256.9 994.7L1297.2 980.5C1305.1 969.8 1309.6 958.1 1309.7 945.5C1310 918 1271.6 882.6 1213 864.6Z" fill="#FFEBBF"/>
<path d="M272.1 1010C259.6 895.1 220.3 797 125.6 738.3C81.9996 711.3 39.1996 697 0.0996094 691.2V904.7V909.4L272.1 1010Z" fill="#FFE0AC"/>
<path d="M37.4 477C56.8 401.2 102.2 372 146.2 341.2C232.2 372.2 316.4 337.9 361.2 263.1L341.4 249.6C311.2 307.5 239.6 334.7 179.4 316.1C203 296.4 222.6 273.3 235.8 235.9L198 216.2C175.2 284.9 121.3 293 69.2 324.2L108.5 135.8L50.5 149.1L0 226.1V231.2V649.9L37.4 477Z" fill="#FFE0AC"/>
<path opacity="0.33" d="M37.4 477C56.8 401.2 102.2 372 146.2 341.2C232.2 372.2 316.4 337.9 361.2 263.1L341.4 249.6C311.2 307.5 239.6 334.7 179.4 316.1C203 296.4 222.6 273.3 235.8 235.9L198 216.2C175.2 284.9 121.3 293 69.2 324.2L108.5 135.8L50.5 149.1L0 226.1V231.2V443.7C12.6 473 26.4 488 37.4 477Z" fill="#FFF1C9"/>
<path d="M399.5 0H0V281.8C18.3 284.8 38.3 286.4 57.4 286.4C227.2 286.4 368.4 160.6 399.5 0Z" fill="#FFEBBF"/>
<path d="M204.2 0L136.6 62.1C152.9 177.3 251.8 265.9 371.5 265.9C491.2 265.9 590.1 177.3 606.4 62.1L518.3 0H204.2Z" fill="#FFEBBF"/>
<path d="M577.8 81.2L577.6 80.9C577.6 80.9 553.3 97.9 551.3 121.4C548.8 144.9 569.4 166.2 569.4 166.2C569.4 166.2 589.7 151.7 594.8 131.3C611.2 144.5 636 143.6 636 143.6C636 143.6 639.4 114.6 623.4 97.3C607.3 80.1 577.8 81.2 577.8 81.2Z" fill="#FFEBBF"/>
<path d="M251 220.9L250.9 220.7C250.9 220.7 233.6 226.4 228.3 239.9C222.7 253.3 231.1 269.5 231.1 269.5C231.1 269.5 245.6 264.5 252.2 253.4C259.5 264.1 274.3 267.9 274.3 267.9C274.3 267.9 281.4 251.4 275 238.4C268.6 225.4 251 220.9 251 220.9Z" fill="#FFEBBF"/>
<path d="M195.3 95.3C170.9 81.1 138 93.1999 138 93.1999C138 93.1999 144.8 127.6 169.1 141.4C193.3 155.2 226.4 143.5 226.4 143.5C226.4 143.5 220.4 108.8 195.3 95.3Z" fill="#FFE0AC"/>
<path d="M106.5 118.3C106.5 118.3 89.4998 134.3 89.7998 152.7C90.3998 171 108.9 186.1 108.9 186.1C108.9 186.1 126 170.5 125.6 151.7C124.8 133 106.5 118.3 106.5 118.3Z" fill="#FFE0AC"/>
<path d="M646.5 103.4C708.1 103.4 759.9 57 774.7 0H518.3C533.2 57 584.9 103.4 646.5 103.4Z" fill="#FFEBBF"/>
<path d="M416.3 86.4C403.8 99.8 406.2 123.5 406.2 123.5C406.2 123.5 429.3 124.6 442.3 111C454.9 97.2 452.4 73.9 452.4 73.9C452.4 73.9 429.1 73.2 416.3 86.4Z" fill="#FFE0AC"/>
<path d="M399.6 975.2C399.6 975.2 278 757.2 92.4002 813.6C115 806.7 60.9002 719.2 0.200195 734V975.2H308.5H399.6Z" fill="#FFEBBF"/>
<path opacity="0.36" d="M1261.5 486.6C1255.8 486.6 1250.3 487.6 1245.1 489.5C1244.5 452.3 1214.2 422.4 1176.9 422.4C1151.5 422.4 1129.3 436.3 1117.6 456.9C1112 454.6 1105.9 453.3 1099.5 453.3C1077.1 453.3 1058.2 468.8 1052.1 490.2C1046.5 487.9 1040.4 486.6 1034 486.6C1009.4 486.6 989 505.4 985.2 530H1310.2C1306.6 505.4 1286.2 486.6 1261.5 486.6Z" fill="white"/>
<path opacity="0.36" d="M1016.1 140.9C1011.6 140.9 1007.3 141.7 1003.2 143.2C1002.7 113.9 978.9 90.4 949.5 90.4C929.5 90.4 912.1 101.3 902.8 117.6C898.4 115.8 893.6 114.8 888.5 114.8C870.9 114.8 856 127 851.2 143.8C846.8 142 842 141 836.9 141C817.5 141 801.4 155.8 798.5 175.1H1054.4C1051.5 155.7 1035.5 140.9 1016.1 140.9Z" fill="white"/>
<path d="M1360.1 884.5C1176.4 929.6 811.8 978.9 566.5 927.1C383.3 888.5 157.2 875.9 0.0996094 872V1335.4H1360.1V884.5Z" fill="#FFEBBF"/>
<path d="M228 984.8H227.9C214.4 984.8 202.3 994.5 197.1 1009.3H258.8C253.5 994.5 241.4 984.9 228 984.8Z" fill="#FFE0AC"/>
<path d="M1134.7 1003.6H1134.6C1121.1 1003.6 1109 1013.3 1103.8 1028.1H1165.5C1160.3 1013.3 1148.1 1003.7 1134.7 1003.6Z" fill="#FFE0AC"/>
<path d="M1222.2 953.8C1214.4 953.8 1207.5 959.3 1204.5 967.8H1239.8C1236.8 959.4 1229.9 953.8 1222.2 953.8Z" fill="#FFE0AC"/>
<path d="M1001.8 968.7C994.6 968.7 988.2 973.8 985.5 981.6H1018.1C1015.3 973.8 1008.9 968.7 1001.8 968.7Z" fill="#FFE0AC"/>
<path d="M1262.3 933.9H1262.2C1249.3 933.9 1237.8 943.1 1232.9 957.2H1291.7C1286.7 943.2 1275.1 934 1262.3 933.9Z" fill="#FFE0AC"/>
<path d="M278 965.5C270.4 965.5 263.6 970.9 260.7 979.2H295.2C292.3 970.9 285.5 965.5 278 965.5Z" fill="#FFE0AC"/>
<path d="M1141.6 1065.5C1141.6 1065.5 1167.8 1093.3 1173.3 1133.4C1131.9 1100 1079.2 1103.5 1079.2 1103.5C1079.2 1103.5 1104.6 1114.6 1123.4 1140.3L1233.6 1175.6C1219.9 1095.4 1141.6 1065.5 1141.6 1065.5Z" fill="#FFE0AC"/>
<path d="M877.4 1119.4C673.4 1093.7 597.8 1077 502.8 1075.8L503 1075.1C511.8 1051.1 534.3 1045.3 534.3 1045.3C534.3 1045.3 503.3 1039.4 487.2 1071.1C488.9 1055.5 494 1032.4 517.5 1015.4C517.5 1015.4 466 1018 453.7 1071.3C446.6 1044.3 410.7 1036.2 409 1035.9C409.7 1037 421.4 1055.4 423.8 1076.2C370 1074.7 304.8 1076 232.2 1079.4V1080C160.6 1083.7 81.0996 1089.4 0.0996094 1096.6V1360H1360.1V1134.1C1185.9 1147.1 1025.7 1138.1 877.4 1119.4Z" fill="#FFE0AC"/>
<path d="M315.2 1287.2C329 1271.5 346.5 1259.9 365.7 1253.1C337.3 1240.2 305.5 1244 281.4 1260.4C289.6 1162.5 222.9 1132.3 222.9 1132.3C245.1 1192.9 210.9 1246.7 210.9 1246.7C178.7 1140.1 67.8996 1100.1 0.0996094 1096.8V1360H459.3C412.6 1276.9 315.2 1287.2 315.2 1287.2Z" fill="#FFC591"/>
<path d="M61.0998 1241.5C57.0998 1264.1 75.6998 1285.8 75.6998 1285.8C75.6998 1285.8 100.1 1270.9 103.8 1248.5C107.5 1226.1 89.1998 1204.2 89.1998 1204.2C89.1998 1204.2 64.3998 1218.6 61.0998 1241.5Z" fill="#FFE0AC"/>
<path d="M123.9 1278.8C109.9 1284.7 103.8 1302.8 103.8 1302.8C103.8 1302.8 120.8 1311.2 134.8 1305.9C148.6 1300.2 154.9 1281.9 154.9 1281.9C154.9 1281.9 138.1 1273.2 123.9 1278.8Z" fill="#FFE0AC"/>
<path d="M1014 1310.7C897.4 1310.7 813.6 1337.2 762.2 1360H1360.1C1360.1 1360 1144.6 1310.7 1014 1310.7Z" fill="#FFC591"/>
<path d="M1206.6 1277.6C1206.6 1277.6 1181.7 1238.5 1197.9 1194.3C1197.9 1194.3 1149.4 1216.3 1155.4 1287.5C1137.9 1275.6 1114.7 1272.8 1094 1282.2C1108 1287.1 1120.7 1295.6 1130.8 1307C1130.8 1307 1060 1299.7 1026 1360H1360V1168.4C1310.7 1170.5 1230.1 1199.4 1206.6 1277.6Z" fill="#FFC591"/>
<path d="M1295.2 1246.6C1295.2 1246.6 1281.9 1262.6 1284.6 1278.9C1287.3 1295.2 1305 1306.1 1305 1306.1C1305 1306.1 1318.5 1290.3 1315.6 1273.8C1313.2 1257.1 1295.2 1246.6 1295.2 1246.6Z" fill="#FFE0AC"/>
<path d="M1269.9 1300.9C1259.5 1296.8 1247.4 1303.1 1247.4 1303.1C1247.4 1303.1 1252 1316.4 1262 1320.6C1272.2 1324.5 1284.5 1318.4 1284.5 1318.4C1284.5 1318.4 1280.1 1305.2 1269.9 1300.9Z" fill="#FFE0AC"/>
<path d="M1350.6 153.7C1353.8 153.7 1356.9 153.6 1360 153.5V0H1164.1C1181 87.6 1258 153.7 1350.6 153.7Z" fill="#FFEBBF"/>
<path d="M1141.9 80.9C1194.2 80.9 1238.6 47 1254.4 0H1029.5C1045.2 47 1089.6 80.9 1141.9 80.9Z" fill="#FFEBBF"/>
<path d="M1195 63.4L1194.9 63.5C1194.9 63.5 1178.8 62.9 1170.1 72.3C1161.4 81.7 1163.2 97.5 1163.2 97.5C1163.2 97.5 1176.7 98 1185.6 90.8C1188.4 101.9 1199.4 109.9 1199.4 109.9C1199.4 109.9 1210.6 98.3 1209.3 85.5C1208.2 72.6 1195 63.4 1195 63.4Z" fill="#FFF2C5"/>
<path d="M1299.8 45.2C1299.8 45.2 1289.2 61.1 1293.2 75.8C1297.2 90.5 1314.5 98.6999 1314.5 98.6999C1314.5 98.6999 1325.6 82.9999 1321.1 68.0999C1317.2 53.1999 1299.8 45.2 1299.8 45.2Z" fill="#FFF2C5"/>
<path d="M1258.3 49.6C1251.5 56.9 1252.8 69.8 1252.8 69.8C1252.8 69.8 1265.4 70.4 1272.5 63C1279.4 55.5 1278 42.8 1278 42.8C1278 42.8 1265.3 42.4 1258.3 49.6Z" fill="#FFF2C5"/>
<path d="M1184.4 25.7C1174.4 25.6 1165.7 34.8 1165.7 34.8C1165.7 34.8 1173.7 44.8 1183.9 45.2C1194.2 45.4 1202.6 36.1 1202.6 36.1C1202.6 36.1 1194.4 26.1 1184.4 25.7Z" fill="#FFF2C5"/>
</g>
<defs>
<clipPath id="clip0_245_11526">
<rect width="1360" height="1360" fill="white"/>
</clipPath>
</defs>
</svg>
