<svg width="48" height="52" viewBox="0 0 48 52" fill="none" xmlns="http://www.w3.org/2000/svg">
<path d="M24 51.515C37.2548 51.515 48 40.7037 48 27.3674C48 14.031 37.2548 3.21973 24 3.21973C10.7452 3.21973 0 14.031 0 27.3674C0 40.7037 10.7452 51.515 24 51.515Z" fill="#400256"/>
<path d="M24 48.2953C37.2548 48.2953 48 37.484 48 24.1476C48 10.8113 37.2548 0 24 0C10.7452 0 0 10.8113 0 24.1476C0 37.484 10.7452 48.2953 24 48.2953Z" fill="white"/>
<path d="M26.8295 36.8339L14.4056 24.7447C14.2581 24.6008 14.1534 24.4449 14.0915 24.277C14.0295 24.1091 13.999 23.9292 14 23.7373C14 23.5454 14.031 23.3655 14.0929 23.1976C14.1549 23.0297 14.2591 22.8737 14.4056 22.7298L26.8295 10.6047C27.1736 10.2689 27.6037 10.101 28.1198 10.101C28.6359 10.101 29.0783 10.2809 29.447 10.6406C29.8157 11.0004 30 11.4202 30 11.8999C30 12.3797 29.8157 12.7994 29.447 13.1592L18.6083 23.7373L29.447 34.3153C29.7911 34.6511 29.9631 35.0651 29.9631 35.5573C29.9631 36.0495 29.7788 36.475 29.4101 36.8339C29.0415 37.1937 28.6114 37.3736 28.1198 37.3736C27.6283 37.3736 27.1982 37.1937 26.8295 36.8339Z" fill="#293671"/>
</svg>
