<svg width="64" height="64" viewBox="0 0 64 64" fill="none" xmlns="http://www.w3.org/2000/svg">
<g clip-path="url(#clip0_181_10643)">
<path d="M58.6998 43.5H4.2998V61.6H58.6998V43.5Z" fill="#FCFFB3"/>
<path d="M58.6998 57H4.2998V61.7H58.6998V57Z" fill="#EAC992"/>
<path d="M58.6996 43.5H4.29963C1.49963 43.5 1.69963 49.8 5.39963 49.8C9.99963 49.8 10.0996 47.3 13.3996 47.9C16.3996 48.5 15.3996 52.2 18.0996 52.5C20.3996 52.8 20.9996 49.7 24.0996 49.9C27.2996 50.1 27.2996 53 30.8996 53.8C37.6996 55.4 39.6996 49.1 44.7996 48.6C49.4996 48.2 50.6996 50.8 54.9996 50.8C62.5996 51.1 61.3996 43.5 58.6996 43.5Z" fill="#EB9CC3"/>
<path d="M31.6992 17.8C31.6992 17.8 32.5992 20.2 31.1992 21.2C29.9992 22.1 28.6992 21.5 27.5992 22.6C26.3992 23.7 26.8992 25.2 26.8992 25.2H37.1992C38.2992 19.9 31.6992 17.8 31.6992 17.8Z" fill="#FFEAFF"/>
<path d="M23.8998 47.5C24.5073 47.5 24.9998 47.0075 24.9998 46.4C24.9998 45.7925 24.5073 45.3 23.8998 45.3C23.2923 45.3 22.7998 45.7925 22.7998 46.4C22.7998 47.0075 23.2923 47.5 23.8998 47.5Z" fill="#FCDB51"/>
<path d="M14.9994 46.3C15.3308 46.3 15.5994 46.0314 15.5994 45.7C15.5994 45.3686 15.3308 45.1 14.9994 45.1C14.668 45.1 14.3994 45.3686 14.3994 45.7C14.3994 46.0314 14.668 46.3 14.9994 46.3Z" fill="#EE5B69"/>
<path d="M31.9994 51.3C32.6069 51.3 33.0994 50.8075 33.0994 50.2C33.0994 49.5925 32.6069 49.1 31.9994 49.1C31.3919 49.1 30.8994 49.5925 30.8994 50.2C30.8994 50.8075 31.3919 51.3 31.9994 51.3Z" fill="#B3DFDC"/>
<path d="M39.4994 47.7C39.8308 47.7 40.0994 47.4314 40.0994 47.1C40.0994 46.7686 39.8308 46.5 39.4994 46.5C39.168 46.5 38.8994 46.7686 38.8994 47.1C38.8994 47.4314 39.168 47.7 39.4994 47.7Z" fill="#EE5B69"/>
<path d="M57.3998 46.3C57.7312 46.3 57.9998 46.0314 57.9998 45.7C57.9998 45.3686 57.7312 45.1 57.3998 45.1C57.0684 45.1 56.7998 45.3686 56.7998 45.7C56.7998 46.0314 57.0684 46.3 57.3998 46.3Z" fill="#EE5B69"/>
<path d="M53.6996 48.8C54.3071 48.8 54.7996 48.3075 54.7996 47.7C54.7996 47.0925 54.3071 46.6 53.6996 46.6C53.0921 46.6 52.5996 47.0925 52.5996 47.7C52.5996 48.3075 53.0921 48.8 53.6996 48.8Z" fill="#B3DFDC"/>
<path d="M29.1 46.9C29.4314 46.9 29.7 46.6314 29.7 46.3C29.7 45.9686 29.4314 45.7 29.1 45.7C28.7686 45.7 28.5 45.9686 28.5 46.3C28.5 46.6314 28.7686 46.9 29.1 46.9Z" fill="#EE5B69"/>
<path d="M47.3998 46.3C47.7312 46.3 47.9998 46.0314 47.9998 45.7C47.9998 45.3686 47.7312 45.1 47.3998 45.1C47.0684 45.1 46.7998 45.3686 46.7998 45.7C46.7998 46.0314 47.0684 46.3 47.3998 46.3Z" fill="white"/>
<path d="M34.6 46.7C34.9314 46.7 35.2 46.4314 35.2 46.1C35.2 45.7686 34.9314 45.5 34.6 45.5C34.2686 45.5 34 45.7686 34 46.1C34 46.4314 34.2686 46.7 34.6 46.7Z" fill="#FCDB51"/>
<path d="M6.19961 47.2C6.53098 47.2 6.79961 46.9314 6.79961 46.6C6.79961 46.2686 6.53098 46 6.19961 46C5.86824 46 5.59961 46.2686 5.59961 46.6C5.59961 46.9314 5.86824 47.2 6.19961 47.2Z" fill="#FCDB51"/>
<path d="M18.6996 49.7C19.031 49.7 19.2996 49.4314 19.2996 49.1C19.2996 48.7686 19.031 48.5 18.6996 48.5C18.3682 48.5 18.0996 48.7686 18.0996 49.1C18.0996 49.4314 18.3682 49.7 18.6996 49.7Z" fill="white"/>
<path d="M54.0994 25.2H9.89941V43.5H54.0994V25.2Z" fill="#FCFFB3"/>
<path d="M54.0994 38.8H9.89941V43.5H54.0994V38.8Z" fill="#EAC992"/>
<path d="M9.89928 25.2H54.0993C56.3993 25.2 56.5993 31.1 52.7993 31.5C49.5993 31.9 48.6993 29.3 46.4993 29.6C43.8993 30 45.1993 33.9 42.8993 34.2C40.9993 34.5 40.4993 31.4 37.8993 31.6C35.1993 31.8 35.2993 34.7 32.1993 35.5C26.4993 37.1 24.8993 30.8 20.5993 30.3C16.6993 29.9 15.6993 32.5 12.0993 32.5C5.89928 32.8 7.29928 25.2 9.89928 25.2Z" fill="#EB9CC3"/>
<path d="M52.1996 29.3C52.8071 29.3 53.2996 28.8075 53.2996 28.2C53.2996 27.5925 52.8071 27.1 52.1996 27.1C51.5921 27.1 51.0996 27.5925 51.0996 28.2C51.0996 28.8075 51.5921 29.3 52.1996 29.3Z" fill="#FCDB51"/>
<path d="M10.9994 30.3C11.3308 30.3 11.5994 30.0314 11.5994 29.7C11.5994 29.3686 11.3308 29.1 10.9994 29.1C10.668 29.1 10.3994 29.3686 10.3994 29.7C10.3994 30.0314 10.668 30.3 10.9994 30.3Z" fill="#EE5B69"/>
<path d="M29.8998 32.8C30.5073 32.8 30.9998 32.3075 30.9998 31.7C30.9998 31.0925 30.5073 30.6 29.8998 30.6C29.2923 30.6 28.7998 31.0925 28.7998 31.7C28.7998 32.3075 29.2923 32.8 29.8998 32.8Z" fill="#B3DFDC"/>
<path d="M41.2992 29.8C41.6306 29.8 41.8992 29.5314 41.8992 29.2C41.8992 28.8686 41.6306 28.6 41.2992 28.6C40.9678 28.6 40.6992 28.8686 40.6992 29.2C40.6992 29.5314 40.9678 29.8 41.2992 29.8Z" fill="#EE5B69"/>
<path d="M14.3998 29.4C15.0073 29.4 15.4998 28.9075 15.4998 28.3C15.4998 27.6925 15.0073 27.2 14.3998 27.2C13.7923 27.2 13.2998 27.6925 13.2998 28.3C13.2998 28.9075 13.7923 29.4 14.3998 29.4Z" fill="#B3DFDC"/>
<path d="M26.4994 29C26.8308 29 27.0994 28.7314 27.0994 28.4C27.0994 28.0686 26.8308 27.8 26.4994 27.8C26.168 27.8 25.8994 28.0686 25.8994 28.4C25.8994 28.7314 26.168 29 26.4994 29Z" fill="#EE5B69"/>
<path d="M48.9994 28.1C49.3308 28.1 49.5994 27.8314 49.5994 27.5C49.5994 27.1686 49.3308 26.9 48.9994 26.9C48.668 26.9 48.3994 27.1686 48.3994 27.5C48.3994 27.8314 48.668 28.1 48.9994 28.1Z" fill="white"/>
<path d="M32.9994 30.3C33.3308 30.3 33.5994 30.0314 33.5994 29.7C33.5994 29.3686 33.3308 29.1 32.9994 29.1C32.668 29.1 32.3994 29.3686 32.3994 29.7C32.3994 30.0314 32.668 30.3 32.9994 30.3Z" fill="#FCDB51"/>
<path d="M20.1996 28.9C20.531 28.9 20.7996 28.6314 20.7996 28.3C20.7996 27.9686 20.531 27.7 20.1996 27.7C19.8682 27.7 19.5996 27.9686 19.5996 28.3C19.5996 28.6314 19.8682 28.9 20.1996 28.9Z" fill="white"/>
<path d="M45.6992 17.8C45.6992 17.8 46.5992 20.2 45.1992 21.2C43.9992 22.1 42.6992 21.5 41.5992 22.6C40.3992 23.7 40.8992 25.2 40.8992 25.2H51.1992C52.2992 19.9 45.6992 17.8 45.6992 17.8Z" fill="#FFEAFF"/>
<path d="M17.5996 17.8C17.5996 17.8 18.4996 20.2 17.0996 21.2C15.8996 22.1 14.5996 21.5 13.4996 22.6C12.2996 23.7 12.7996 25.2 12.7996 25.2H23.0996C24.1996 19.9 17.5996 17.8 17.5996 17.8Z" fill="#FFEAFF"/>
<path d="M41.0004 23.5L39.7004 22.2L38.4004 20.9C40.0004 19.2 42.0004 19.9 42.0004 19.9C42.0004 19.9 42.6004 21.8 41.0004 23.5Z" fill="#359348"/>
<path d="M39.7002 22.1L38.2002 20.6L38.6002 18C38.6002 18 41.2002 19.8 39.7002 22.1Z" fill="#41AB5A"/>
<path d="M43.8002 23.1L41.2002 23.5L39.7002 22C42.0002 20.6 43.8002 23.1 43.8002 23.1Z" fill="#41AB5A"/>
<path d="M40.2 21.5C40.2 21.5 42.8 23.8 41.8 25.6C40.6 27.7 36 28.6 34.7 27.2C33.3 25.9 34 21.3 36.1 20C37.9 19 40.2 21.5 40.2 21.5Z" fill="#DF2C41"/>
<path d="M36.4004 25.4C36.0004 25 36.2004 24.5 36.2004 24.5L37.3004 25.6C37.3004 25.6 36.8004 25.8 36.4004 25.4Z" fill="#F16B63"/>
<path d="M38.4004 25.4C38.0004 25 38.2004 24.5 38.2004 24.5L39.3004 25.6C39.3004 25.6 38.7004 25.8 38.4004 25.4Z" fill="#F16B63"/>
<path d="M36.4004 23.4C36.0004 23 36.2004 22.5 36.2004 22.5L37.3004 23.6C37.3004 23.7 36.8004 23.8 36.4004 23.4Z" fill="#F16B63"/>
<path d="M38.4004 23.4C38.0004 23 38.2004 22.5 38.2004 22.5L39.3004 23.6C39.3004 23.6 38.7004 23.8 38.4004 23.4Z" fill="#F16B63"/>
<path fill-rule="evenodd" clip-rule="evenodd" d="M60.9 64.2L64 61.6H0L3.1 64.2H60.9Z" fill="#6287C4"/>
</g>
<defs>
<clipPath id="clip0_181_10643">
<rect width="64" height="64" fill="white"/>
</clipPath>
</defs>
</svg>
