<svg width="190" height="190" viewBox="0 0 190 190" fill="none" xmlns="http://www.w3.org/2000/svg">
<g filter="url(#filter0_di_18_3)">
<path d="M61.4344 125.659L159.522 27.5719C162.57 24.524 166.449 23 171.159 23C175.87 23 179.749 24.524 182.797 27.5719C185.845 30.6198 187.369 34.4989 187.369 39.2094C187.369 43.9198 185.845 47.799 182.797 50.8469L73.0719 160.572C69.7469 163.897 65.8677 165.559 61.4344 165.559C57.001 165.559 53.1219 163.897 49.7969 160.572L6.57187 117.347C3.52395 114.299 2 110.42 2 105.709C2 100.999 3.52395 97.1198 6.57187 94.0719C9.61979 91.024 13.499 89.5 18.2094 89.5C22.9198 89.5 26.799 91.024 29.8469 94.0719L61.4344 125.659Z" fill="#8ACB00"/>
</g>
<defs>
<filter id="filter0_di_18_3" x="2" y="23" width="185.369" height="146.559" filterUnits="userSpaceOnUse" color-interpolation-filters="sRGB">
<feFlood flood-opacity="0" result="BackgroundImageFix"/>
<feColorMatrix in="SourceAlpha" type="matrix" values="0 0 0 0 0 0 0 0 0 0 0 0 0 0 0 0 0 0 127 0" result="hardAlpha"/>
<feOffset dy="4"/>
<feComposite in2="hardAlpha" operator="out"/>
<feColorMatrix type="matrix" values="0 0 0 0 0 0 0 0 0 0 0 0 0 0 0 0 0 0 0.79 0"/>
<feBlend mode="normal" in2="BackgroundImageFix" result="effect1_dropShadow_18_3"/>
<feBlend mode="normal" in="SourceGraphic" in2="effect1_dropShadow_18_3" result="shape"/>
<feColorMatrix in="SourceAlpha" type="matrix" values="0 0 0 0 0 0 0 0 0 0 0 0 0 0 0 0 0 0 127 0" result="hardAlpha"/>
<feOffset dy="4"/>
<feComposite in2="hardAlpha" operator="arithmetic" k2="-1" k3="1"/>
<feColorMatrix type="matrix" values="0 0 0 0 1 0 0 0 0 1 0 0 0 0 1 0 0 0 1 0"/>
<feBlend mode="normal" in2="shape" result="effect2_innerShadow_18_3"/>
</filter>
</defs>
</svg>
