<svg width="64" height="64" viewBox="0 0 64 64" fill="none" xmlns="http://www.w3.org/2000/svg">
<path d="M16.2001 46.5C13.8001 45.9 10.7001 39.5 10.7001 39.5C6.50009 38.5 7.50009 34.3 7.50009 34.3C5.50009 33.5 3.00009 31.2 4.10009 27.4C5.10009 24.2 8.30009 24.5 8.90009 20.7C9.40009 17.6 7.70009 10 17.6001 10C17.6001 10 18.2001 4.3 24.2001 3.3C31.5001 2.1 33.0001 6.6 36.1001 7.6C39.6001 8.7 47.4001 6 47.8001 14.2C47.8001 14.2 52.8001 14.7 54.9001 18.5C56.8001 22.1 55.3001 26.4 53.7001 27.9C53.7001 27.9 57.7001 29.5 58.3001 33.4C58.8001 36 57.5001 39.3 54.9001 40.7C53.2001 41.6 51.6001 41.6 51.6001 41.6C49.9001 41.8 49.5001 46.2 48.0001 46.9C45.6001 48.1 43.0001 48.9 40.3001 49.5" fill="#E5834D"/>
<path d="M44.1002 39.9C44.1002 39.9 47.4002 36 50.2002 37.5C53.0002 39 53.8002 44.6 49.3002 47.8C45.9002 50.3 43.2002 49.3 43.2002 49.3L44.1002 39.9Z" fill="#F0C5A8"/>
<path d="M17.1 39.9C17.1 39.9 13.8 36 11 37.5C8.20003 39 7.40003 44.6 11.9 47.8C15.3 50.3 18 49.3 18 49.3L17.1 39.9Z" fill="#F0C5A8"/>
<path d="M46.0003 55.6C44.6003 59.7 39.8003 64 30.7003 64C21.6003 64 16.8003 59.7 15.4003 55.6C13.9003 51.2 14.9003 37.1 14.9003 37.1C14.7003 34.3 15.0003 31.5 14.9003 29.2C14.7003 26.1 17.3003 17.7 30.8003 17.7C44.3003 17.7 46.9003 26.1 46.7003 29.2C46.6003 31.7 46.8003 34.8 46.6003 37.9C46.5003 37.9 47.4003 51.4 46.0003 55.6Z" fill="#F7DCC4"/>
<path d="M27.4001 56.5C23.9001 54.6 23.0001 50.8 23.0001 50.6C22.7001 49.1 24.2001 47.9 25.6001 48.5C30.4001 50.8 36.8001 49 36.9001 48.9C38.4001 48.5 39.7001 50 39.1001 51.4C38.9001 51.8 37.6001 55.2 34.6001 56.5C32.1001 57.5 28.5001 57.1 27.4001 56.5Z" fill="#E56A5D"/>
<path d="M8.7002 23.8L29.2002 8.8L50.6002 21L47.2002 36.6C47.0002 29.3 42.4002 31.4 40.2002 29.2C38.0002 26.9 37.1002 23.5 31.5002 26.2C31.5002 26.2 27.2002 22.9 24.7002 27.1C22.8002 30.4 20.4002 29.6 18.0002 29.7C15.2002 29.8 13.7002 33.3 14.3002 36.6L8.7002 23.8Z" fill="#E5834D"/>
<path d="M21.5 35.6C18.9 35.7 17.1 38 18.6 40.4C18.6 40.4 19.5 41.2 21.7 41.4C24.4 41.8 26.5 40.3 26.5 40.3C26.5 36.3 23.6 35.5 21.5 35.6Z" fill="white"/>
<path d="M25.0003 38.4C24.7003 37.2 23.5003 36.5 22.3003 36.7C22.5003 36.9 22.6003 37.1 22.6003 37.3C22.7003 37.9 22.3003 38.6 21.6003 38.7C21.2003 38.8 20.8003 38.6 20.5003 38.4C20.4003 38.7 20.4003 39 20.5003 39.3C20.8003 40.5 22.0003 41.2 23.2003 41C24.4003 40.7 25.2003 39.5 25.0003 38.4Z" fill="#5365A0"/>
<path d="M24.4001 31.8C20.4001 30.5 18.1001 34.3 18.1001 34.3C18.1001 34.3 22.6001 33 26.3001 34.6C26.4001 34.5 26.2001 32.4 24.4001 31.8Z" fill="#E5834D"/>
<path d="M36.9 31.8C35.1 32.4 35 34.5 35 34.5C38.7 33 43.2 34.3 43.2 34.3C43.2 34.3 40.9 30.5 36.9 31.8Z" fill="#E5834D"/>
<path d="M20.3999 44C20.3999 44.3 20.1999 44.5 19.8999 44.5C19.5999 44.5 19.3999 44.3 19.3999 44C19.3999 43.7 19.5999 43.5 19.8999 43.5C20.1999 43.6 20.3999 43.8 20.3999 44Z" fill="#DD9B70"/>
<path d="M23.7002 44.6C23.7002 44.9 23.5002 45.1 23.2002 45.1C22.9002 45.1 22.7002 44.9 22.7002 44.6C22.7002 44.3 22.9002 44.1 23.2002 44.1C23.5002 44.1 23.7002 44.4 23.7002 44.6Z" fill="#DD9B70"/>
<path d="M21.7002 46.2C21.7002 46.5 21.5002 46.7 21.2002 46.7C20.9002 46.7 20.7002 46.5 20.7002 46.2C20.7002 45.9 20.9002 45.7 21.2002 45.7C21.5002 45.7 21.7002 45.9 21.7002 46.2Z" fill="#DD9B70"/>
<path d="M41.2999 44C41.2999 44.3 41.4999 44.5 41.7999 44.5C42.0999 44.5 42.2999 44.3 42.2999 44C42.2999 43.7 42.0999 43.5 41.7999 43.5C41.3999 43.6 41.1999 43.8 41.2999 44Z" fill="#DD9B70"/>
<path d="M37.8999 44.6C37.8999 44.9 38.0999 45.1 38.3999 45.1C38.6999 45.1 38.8999 44.9 38.8999 44.6C38.8999 44.3 38.6999 44.1 38.3999 44.1C38.0999 44.1 37.8999 44.4 37.8999 44.6Z" fill="#DD9B70"/>
<path d="M39.8999 46.2C39.8999 46.5 40.0999 46.7 40.3999 46.7C40.6999 46.7 40.8999 46.5 40.8999 46.2C40.8999 45.9 40.6999 45.7 40.3999 45.7C40.0999 45.7 39.8999 45.9 39.8999 46.2Z" fill="#DD9B70"/>
<path d="M24.8003 50.2C30.3003 52.8 37.4003 50.7 37.4003 50.7C37.4003 50.7 36.2003 53.6 33.7003 54.9C32.7003 55.4 30.9003 54.3 30.9003 54.3C30.9003 54.3 29.2003 55.3 28.3003 54.8C25.4003 53.3 24.8003 50.2 24.8003 50.2Z" fill="#2A2A2C"/>
<path d="M30.9002 54.2C29.0002 54.2 28.2002 54.9 28.2002 54.9C28.9002 55.3 29.7002 55.6 30.7002 55.6C31.8002 55.6 32.8002 55.4 33.6002 54.9C33.6002 54.9 32.8002 54.2 30.9002 54.2Z" fill="#BF5555"/>
<path d="M28.5 46.9C28.5 46.9 30.4 50.8 33.6 46.9H28.5Z" fill="#F7DCC4"/>
<path d="M31.7999 42.7C32.0999 43.5 32.7999 44.2 33.0999 45.4C33.2999 46.4 32.4999 47.8 31.8999 48.3C33.4999 47.7 34.4999 46 33.9999 44.7C33.4999 43.2 32.6999 43 32.0999 41.6C31.6999 40.8 31.4999 40 31.4999 40C31.4999 40 31.3999 41.7 31.7999 42.7Z" fill="#DCB8A1"/>
<path d="M31.2002 48.6C33.6855 48.6 35.7002 46.5853 35.7002 44.1C35.7002 41.6147 33.6855 39.6 31.2002 39.6C28.7149 39.6 26.7002 41.6147 26.7002 44.1C26.7002 46.5853 28.7149 48.6 31.2002 48.6Z" fill="#E5434D"/>
<path d="M31.3002 42.8C32.46 42.8 33.4002 42.218 33.4002 41.5C33.4002 40.782 32.46 40.2 31.3002 40.2C30.1404 40.2 29.2002 40.782 29.2002 41.5C29.2002 42.218 30.1404 42.8 31.3002 42.8Z" fill="#E5574D"/>
<path d="M29.3999 14.7L48.4999 25.7L48.2999 4.2L29.3999 14.7Z" fill="#FDC555"/>
<path d="M39.8003 35.7C37.7003 35.6 34.9003 36.4 34.8003 40.5C34.8003 40.5 36.9003 42 39.6003 41.6C41.8003 41.3 42.7003 40.6 42.7003 40.6C44.3003 38.1 42.4003 35.8 39.8003 35.7Z" fill="white"/>
<path d="M40.9002 38.4C40.6002 37.2 39.4002 36.5 38.2002 36.7C38.4002 36.9 38.5002 37.1 38.5002 37.3C38.6002 37.9 38.2002 38.6 37.5002 38.7C37.1002 38.8 36.7002 38.6 36.4002 38.4C36.3002 38.7 36.3002 39 36.4002 39.3C36.7002 40.5 37.9002 41.2 39.1002 41C40.3002 40.7 41.1002 39.5 40.9002 38.4Z" fill="#5365A0"/>
<path opacity="0.58" d="M46.7003 41.9C45.3003 41.9 35.7003 42 37.5003 45.8C38.8003 48.6 43.6003 51 46.6003 52.3C46.9003 49.2 46.8003 45 46.7003 41.9Z" fill="#E5837E"/>
<path opacity="0.58" d="M24.0998 45.9C26.0998 41.7 14.6998 42 14.6998 42L14.5998 42.5C14.4998 45.6 14.4998 49.6 14.7998 52.5C17.7998 51.2 22.6998 48.7 24.0998 45.9Z" fill="#E5837E"/>
<path d="M34.8003 11.7C37.0003 14.5 40.7003 19.2 43.6003 22.8L48.6003 25.6V23.5L38.9003 9.5L34.8003 11.7Z" fill="#E59027"/>
<path d="M45.8003 5.6L41.8003 7.8L48.4003 16.6V9.4L45.8003 5.6Z" fill="#E59027"/>
<path d="M25.7002 14.7C25.7002 14.7 33.9002 13.1 37.8002 14.9C42.4002 17.1 43.4002 21.5 43.4002 21.5C43.4002 21.5 46.9002 21.4 48.1002 22.5C50.0002 24.1 50.4002 32.6 50.4002 32.6L42.7002 30L25.7002 14.7Z" fill="#E5834D"/>
<path d="M48.8 6.6C50.6225 6.6 52.1 5.12254 52.1 3.3C52.1 1.47746 50.6225 0 48.8 0C46.9775 0 45.5 1.47746 45.5 3.3C45.5 5.12254 46.9775 6.6 48.8 6.6Z" fill="#FDC555"/>
</svg>
