<svg width="64" height="64" viewBox="0 0 64 64" fill="none" xmlns="http://www.w3.org/2000/svg">
<path d="M49.5002 20.3C49.7002 20.5 49.8002 20.7 50.0002 20.8V20.7C55.9002 24.1 59.9002 20.8 59.9002 20.8C59.9002 20.8 61.1002 27 53.2002 28.3C53.7002 33.5 51.5002 39.3 46.0002 42.7L13.7002 26.3C17.5002 17.8 37.4002 8.8 49.5002 20.3Z" fill="#2A2A2C"/>
<path d="M8.70014 48C8.70014 48 20.7001 53.5 33.1001 50.1C45.0001 46.9 47.9001 40.1 47.9001 40.1C54.7001 26.6 44.0001 16.5 29.6001 17.8C18.3001 18.8 7.20014 27.2 8.70014 48Z" fill="white"/>
<path d="M40.4002 32.7C39.0002 26.2 32.4002 22.1 25.6002 23.4H25.5002C26.4002 24.3 27.0002 25.4 27.3002 26.6C28.1002 30.2 25.7002 33.6 22.0002 34.4C19.7002 34.9 17.4002 34.1 15.8002 32.6C15.4002 34.2 15.4002 35.9 15.7002 37.6C17.1002 44.1 23.7002 48.2 30.5002 46.9C37.4002 45.6 41.8002 39.2 40.4002 32.7Z" fill="#615375"/>
</svg>
