<svg width="64" height="64" viewBox="0 0 64 64" fill="none" xmlns="http://www.w3.org/2000/svg">
<path d="M15.5 40.3C15 42.5 14.4 47.7 17 47.1C19.6 46.5 25.1 42.6 25.1 42.6L19.6 38.3C19.7 38.3 16.1 37.8 15.5 40.3Z" fill="#1A006E"/>
<path d="M1.90008 22.5C0.600083 25.1 4.30008 28.5 3.70008 33.4C3.40008 36.1 -0.499917 40.4 0.800083 41.7C2.00008 42.9 13.0001 37.8 13.0001 37.8L13.2001 28.6C13.1001 28.6 3.20008 19.9 1.90008 22.5Z" fill="#331A84"/>
<path d="M62.3001 33.9C62.3001 33.9 52.4001 39.3 55.3001 39.7C58.2001 40.2 63.7001 34.8 63.6001 34.2C63.4001 33.3 62.3001 33.9 62.3001 33.9Z" fill="#604AA6"/>
<path d="M33.5001 10.4C33.0001 9.7 32.0001 9.4 31.3001 9.9C28.9001 11.3 25.8001 13.3 22.8001 16.4C20.7001 18.6 19.1001 20.8 17.9001 22.7C17.3001 23.6 17.8001 24.8 18.7001 25.2C19.9001 25.6 21.0001 26.1 22.2001 26.5C22.6001 26.7 23.0001 26.6 23.4001 26.5L37.7001 20.7C38.7001 20.3 39.1001 19.1 38.5001 18.2C36.9001 15.5 35.2001 13 33.5001 10.4Z" fill="#331A84"/>
<path d="M33.9001 14.4C32.3001 13 30.5001 12.5 29.4001 12.1C30.2001 12.9 31.3001 14.2 32.1001 16C32.9001 17.6 33.3001 19.1 33.4001 20.2C32.6001 19.3 31.5001 18.3 29.9001 17.2C28.4001 16.2 27.0001 15.6 25.9001 15.3C26.6001 16.1 27.5001 17.2 28.3001 18.6C28.9001 19.7 29.3001 20.9 29.7001 21.8C29.0001 21.1 27.8001 20 26.1001 19.3C24.6001 18.7 23.4001 18.4 22.5001 18.4C23.1001 18.9 24.0001 19.8 24.8001 21C25.5001 22.1 25.9001 23.2 26.1001 24C25.6001 23.5 24.7001 22.7 23.5001 22.2C22.6001 21.8 21.7001 21.6 21.1001 21.5C21.4001 21.7 22.5001 23 23.1001 23.8C23.6001 24.6 23.9001 25.4 24.2001 26.2L22.0001 27.9C27.1001 25.2 32.8001 22.4 37.9001 19.6C37.2001 18.4 35.9001 16.2 33.9001 14.4Z" fill="#1A006E"/>
<path d="M37.8002 43.5C37.8002 43.5 34.4002 44.9 33.3002 46C32.2002 47.1 32.3002 52.7 35.6002 53C38.9002 53.3 40.5002 44.6 40.5002 44.6L37.8002 43.5Z" fill="#1A006E"/>
<path d="M54.4001 24.9C48.7001 21.2 43.2001 18.7 35.8001 19.1C25.1001 19.7 22.4001 30.6 13.1001 28.5C12.6001 29.1 11.6001 30.4 11.3001 32.4C10.9001 35.2 12.2001 37.4 12.6001 37.9C13.2001 37.6 14.3001 37.3 15.7001 37.3C20.9001 37.2 21.3001 41.8 25.9001 43.2C38.8001 47.3 48.7001 43.8 55.1001 39.6C52.3001 35.3 52.1001 29.5 54.4001 24.9Z" fill="#45359A"/>
<path d="M62.7002 30.8C59.8002 28.7 57.1002 26.7 54.4002 25C52.1002 29.6 52.3002 35.4 55.1002 39.6C58.6002 40.3 58.2002 36.4 62.7002 32.4C63.3002 31.9 63.3002 31.2 62.7002 30.8Z" fill="#604AA6"/>
<path d="M49.2001 35.4C49.2001 35.4 41.9001 32.6 40.0001 35.2C38.1001 37.8 42.0001 40.3 43.9001 40.2C45.9001 40.1 48.4001 38.6 48.4001 38.6C47.7001 38.3 47.5001 37.9 47.5001 37.8C47.3001 37.2 47.9001 36.1 49.2001 35.4Z" fill="#1A006E"/>
<path d="M50.0002 33.7C50.7002 38.2 55.1002 39.7 55.1002 39.7L54.3002 25C54.3002 25 49.1002 28.2 50.0002 33.7Z" fill="#604AA6"/>
<path d="M56.0999 29.1C54.8999 29 53.8999 30 53.7999 31.1C53.6999 32.3 54.6999 33.3 55.7999 33.4C56.9999 33.5 57.9999 32.5 58.0999 31.4C58.1999 30.2 57.2999 29.2 56.0999 29.1Z" fill="white"/>
<path d="M56.3999 30.4C55.8999 30.2 55.2999 30.4 55.0999 30.8C54.8999 31.3 55.0999 31.9 55.4999 32.1C55.9999 32.3 56.5999 32.1 56.7999 31.7C57.0999 31.2 56.8999 30.6 56.3999 30.4Z" fill="#04040A"/>
<path d="M24.9002 33.9C24.9002 33.1 25.6002 32.4 26.4002 32.2C26.2002 32.1 26.1002 32.1 25.9002 32.1C24.8002 32 23.9002 32.8 23.9002 33.8C23.8002 34.8 24.7002 35.7 25.7002 35.7C25.9002 35.7 26.1002 35.7 26.2002 35.7C25.4002 35.5 24.9002 34.7 24.9002 33.9Z" fill="#604AA6"/>
<path d="M25.0999 30.4C25.0999 29.6 25.7999 28.9 26.5999 28.7C26.3999 28.6 26.2999 28.6 26.0999 28.6C24.9999 28.5 24.0999 29.3 24.0999 30.3C23.9999 31.3 24.8999 32.2 25.8999 32.2C26.0999 32.2 26.2999 32.2 26.3999 32.2C25.6999 32 25.0999 31.2 25.0999 30.4Z" fill="#604AA6"/>
<path d="M23.0003 32C23.0003 31.2 23.7003 30.5 24.5003 30.3C24.3003 30.2 24.2003 30.2 24.0003 30.2C22.9003 30.1 22.0003 30.9 22.0003 31.9C21.9003 32.9 22.8003 33.8 23.8003 33.8C24.0003 33.8 24.2003 33.8 24.3003 33.8C23.5003 33.6 23.0003 32.8 23.0003 32Z" fill="#604AA6"/>
<path d="M37.2 29.8C37.2 29 37.9 28.3 38.7 28.1C38.5 28 38.4 28 38.2 28C37.1 27.9 36.2 28.7 36.2 29.7C36.1 30.7 37 31.6 38 31.6C38.2 31.6 38.4 31.6 38.5 31.6C37.8 31.4 37.2 30.6 37.2 29.8Z" fill="#604AA6"/>
<path d="M37.5003 26.3C37.5003 25.5 38.2003 24.8 39.0003 24.6C38.8003 24.5 38.7003 24.5 38.5003 24.5C37.4003 24.4 36.5003 25.2 36.5003 26.2C36.4003 27.2 37.3003 28.1 38.3003 28.1C38.5003 28.1 38.7003 28.1 38.8003 28.1C38.0003 27.8 37.4003 27.1 37.5003 26.3Z" fill="#604AA6"/>
<path d="M35.3001 27.9C35.3001 27.1 36.0001 26.4 36.8001 26.2C36.6001 26.1 36.5001 26.1 36.3001 26.1C35.2001 26 34.3001 26.8 34.3001 27.8C34.2001 28.8 35.1001 29.7 36.1001 29.7C36.3001 29.7 36.5001 29.7 36.6001 29.7C35.9001 29.4 35.3001 28.7 35.3001 27.9Z" fill="#604AA6"/>
</svg>
