<svg width="64" height="64" viewBox="0 0 64 64" fill="none" xmlns="http://www.w3.org/2000/svg">
<path d="M28.7001 50.7C28.6001 50.7 28.6001 50.7 28.5001 50.7C28.1001 50.6 27.8001 50.2 28.0001 49.7C34.1001 28.3 27.0001 4 27.0001 3.7C26.9001 3.3 27.1001 2.9 27.5001 2.7C27.9001 2.6 28.3001 2.8 28.5001 3.2C28.6001 3.4 35.8001 28.2 29.6001 50C29.4001 50.5 29.0001 50.8 28.7001 50.7Z" fill="#1EA94A"/>
<path d="M28.5998 44.4C28.4998 44.4 28.2998 44.4 28.1998 44.3C27.7998 44.1 27.6998 43.6 27.8998 43.2C33.9998 33.3 35.7998 9.9 35.7998 9.7C35.7998 9.3 36.1998 8.9 36.5998 9C36.9998 9 37.3998 9.4 37.2998 9.8C37.1998 10.8 35.4998 33.8 29.0998 44C29.0998 44.3 28.7998 44.4 28.5998 44.4Z" fill="#1EA94A"/>
<path d="M23.6 46C23.2 46 22.9 45.7 22.9 45.4C20.3 31.7 8.20004 26.9 8.10004 26.8C7.70004 26.6 7.50004 26.2 7.70004 25.8C7.90004 25.4 8.30004 25.2 8.70004 25.4C8.80004 25.4 21.7 30.5 24.5 45.2C24.6 45.6 24.3 46 23.9 46.1C23.7 46 23.7 46 23.6 46Z" fill="#1EA94A"/>
<path d="M10.8999 4.3C14.0999 10.1 18.1999 18.9 20.4999 30.3C22.4999 40.2 22.3999 48.8 21.7999 55.1C23.3999 55.4 24.9999 55.6 26.6999 55.7C28.1999 55.8 29.5999 55.7 30.9999 55.5C31.6999 49.7 32.2999 38.5 26.9999 26C22.2999 14.6 14.8999 7.6 10.8999 4.3Z" fill="#1D8C44"/>
<path d="M36.4998 25C28.5998 37 28.2998 50.1 28.4998 55.6C31.4998 55.5 34.3998 55 37.1998 54.1C36.7998 48.3 36.9998 40.5 39.2998 31.7C41.1998 24.4 43.9998 18.5 46.3998 14.3C43.2998 16.7 39.6998 20.2 36.4998 25Z" fill="#1B9A48"/>
<path d="M42.7999 46.5H42.7C42.3 46.4 41.9999 46 42.0999 45.6C45.0999 31.5 55.8 31.3 55.9 31.3C56.3 31.3 56.7 31.7 56.7 32.1C56.7 32.5 56.4 32.9 55.9 32.9C55.5 32.9 46.3999 33.1 43.5999 46C43.4999 46.2 43.0999 46.5 42.7999 46.5Z" fill="#1EA94A"/>
<path d="M47.6001 26C37.3001 36 34.1001 48.8 33.1001 54.1C36.1001 54.7 39.0001 54.8 41.9001 54.6C42.8001 48.9 44.7001 41.3 48.8001 33.2C52.2001 26.5 56.2001 21.4 59.5001 17.8C56.1001 19.4 51.8001 22 47.6001 26Z" fill="#1B9A48"/>
<path d="M46.0999 40.1C39.1999 44.7 38.3999 53.1 38.3999 55.4C41.2999 55 44.0999 54.3 46.6999 53.1C46.4999 51.2 46.5999 48.8 47.5999 46.3C50.1999 39.8 56.4999 37.9 57.2999 37.7C55.6999 37.5 50.7999 37 46.0999 40.1Z" fill="#1EA94A"/>
<path d="M17.1 37.3C12.1 33.4 6.8 32.8 4.5 32.7C6.3 33.5 11.6 36.2 15.1 42.6C17.5 47 18.1 51.2 18.1 54.1C20.6 54.9 23.2 55.5 25.9 55.6C25.6 52 24.5 43.1 17.1 37.3Z" fill="#1EA94A"/>
<path d="M39.2 40.1C32.3 44.7 31.5 53.1 31.5 55.4C34.4 55 37.2 54.3 39.8 53.1C39.6 51.2 39.7 48.8 40.7 46.3C43.3 39.8 49.6 37.9 50.4 37.7C48.8 37.5 43.9 37 39.2 40.1Z" fill="#1EA94A"/>
<path d="M4.5 61.2H59.6C59.6 61.2 49 48.9 29.5 50.2C10 51.5 4.5 61.2 4.5 61.2Z" fill="#1EA94A"/>
</svg>
