<svg width="48" height="51" viewBox="0 0 48 51" fill="none" xmlns="http://www.w3.org/2000/svg">
<path d="M24 51C37.2548 51 48 40.2968 48 27.0938C48 13.8907 37.2548 3.1875 24 3.1875C10.7452 3.1875 0 13.8907 0 27.0938C0 40.2968 10.7452 51 24 51Z" fill="#400256"/>
<path d="M24 47.8125C37.2548 47.8125 48 37.1093 48 23.9062C48 10.7032 37.2548 0 24 0C10.7452 0 0 10.7032 0 23.9062C0 37.1093 10.7452 47.8125 24 47.8125Z" fill="white"/>
<path d="M29.4209 36.0259H19.3721C18.9964 36.0259 18.636 35.8772 18.3703 35.6125C18.1046 35.3479 17.9553 34.9889 17.9553 34.6146C17.9553 34.2404 18.1046 33.8814 18.3703 33.6167C18.636 33.3521 18.9964 33.2034 19.3721 33.2034H29.4209C29.7967 33.2034 30.157 33.3521 30.4227 33.6167C30.6884 33.8814 30.8377 34.2404 30.8377 34.6146C30.8377 34.9889 30.6884 35.3479 30.4227 35.6125C30.157 35.8772 29.7967 36.0259 29.4209 36.0259Z" fill="white"/>
<path d="M28.8026 35.166C28.8026 36.339 28.3348 37.4639 27.5022 38.2933C26.6695 39.1227 25.5402 39.5887 24.3626 39.5887C23.185 39.5887 22.0557 39.1227 21.223 38.2933C20.3904 37.4639 19.9226 36.339 19.9226 35.166H28.8026Z" fill="#293671"/>
<path fill-rule="evenodd" clip-rule="evenodd" d="M34.1152 13.3174C34.9734 14.9178 35.4208 16.7049 35.4174 18.5194C35.419 19.9574 35.1358 21.3817 34.584 22.7106C34.0321 24.0394 33.2225 25.2468 32.2014 26.2634C30.8262 27.6372 29.9798 28.9576 29.9798 30.8972C29.9798 30.9903 29.9427 31.0796 29.8767 31.1454C29.8107 31.2113 29.7212 31.2484 29.6278 31.2486H19.1326C19.0391 31.2484 18.9495 31.2113 18.8833 31.1455C18.8172 31.0796 18.78 30.9904 18.7798 30.8972V30.8909C18.7762 30.0276 18.5846 29.1754 18.2182 28.3932C17.8517 27.6109 17.3192 26.9171 16.6574 26.3598C15.3552 25.091 14.3885 23.521 13.8434 21.7897C13.2982 20.0584 13.1916 18.2197 13.5331 16.4374C13.8745 14.6551 14.6534 12.9847 15.8003 11.575C16.9471 10.1653 18.4263 9.06025 20.106 8.35824C21.7857 7.65624 23.6137 7.37914 25.427 7.55165C27.2404 7.72416 28.9826 8.34092 30.4986 9.34694C32.0145 10.353 33.257 11.717 34.1152 13.3174ZM29.715 18.0499C29.9933 18.2613 30.3336 18.376 30.6836 18.3764C30.8258 18.3752 30.9672 18.3557 31.1044 18.3182C31.3072 18.2629 31.4971 18.1683 31.6632 18.0398C31.8293 17.9113 31.9684 17.7514 32.0724 17.5694C32.1764 17.3873 32.2434 17.1866 32.2694 16.9787C32.2955 16.7708 32.2802 16.5599 32.2244 16.3579C31.8253 14.9462 31.0457 13.6704 29.9702 12.6687C28.8947 11.6671 27.5644 10.978 26.1236 10.6762C25.7125 10.6028 25.2888 10.6925 24.9432 10.926C24.5975 11.1596 24.3572 11.5185 24.2737 11.9261C24.1901 12.3337 24.2699 12.7578 24.4959 13.1076C24.722 13.4574 25.0765 13.7053 25.4836 13.7984C26.3476 13.9795 27.1455 14.3928 27.7905 14.9935C28.4355 15.5941 28.9032 16.3592 29.1428 17.2058C29.2357 17.5419 29.4367 17.8384 29.715 18.0499Z" fill="#293671"/>
</svg>
