<svg width="64" height="64" viewBox="0 0 64 64" fill="none" xmlns="http://www.w3.org/2000/svg">
<g clip-path="url(#clip0_181_10609)">
<path d="M25.8 19L20.9 4.7H12V0.699997H23.8L29.6 17.7L25.8 19Z" fill="#FDE655"/>
<path d="M49.7003 13.3H20.8003V64.3H49.7003V13.3Z" fill="#3C9AAF"/>
<path d="M21.5001 13.3H8.1001V64.3H21.5001V13.3Z" fill="#276A38"/>
<path d="M49.7003 23.2H20.8003V64.4H49.7003V23.2Z" fill="#41AB5A"/>
<path d="M16.8999 20.2H11.8999C10.9999 20.2 10.3999 20.9 10.3999 21.7V59.2C10.3999 60 11.0999 60.7 11.8999 60.7H16.8999C17.7999 60.7 18.3999 60 18.3999 59.2V21.8C18.3999 20.9 17.7999 20.2 16.8999 20.2Z" fill="#359348"/>
<path d="M39.8999 19.5L39.0999 18C32.8999 24.8 39.4999 31.4 39.4999 31.4L49.5999 32.2V15.4C42.5999 19 39.8999 19.5 39.8999 19.5Z" fill="#359348"/>
<path d="M34.0003 31.4C37.7003 24.5 31.6003 15.6 31.6003 15.6L30.6003 17C29.3003 12.6 24.5003 14.4 22.5003 13.3H20.8003V37.1C26.0003 39.4 30.7003 37.7 34.0003 31.4Z" fill="#359348"/>
<path d="M40.7002 19.4C29.3002 21.8 21.9002 33 24.3002 44.5C26.7002 56 37.9002 63.3 49.4002 60.9C49.5002 60.9 49.6002 60.9 49.7002 60.8V19.5C46.8002 18.8 43.8002 18.8 40.7002 19.4Z" fill="#F8B42C"/>
<path d="M41.4002 22.7C31.8002 24.7 25.6002 34.1 27.6002 43.8C29.6002 53.5 39.0002 59.6 48.7002 57.6C49.0002 57.5 49.4002 57.5 49.7002 57.4V23C47.1002 22.3 44.3002 22.1 41.4002 22.7Z" fill="#FDE655"/>
<path d="M43.9005 44.5L38.6005 52.7C38.4005 53.1 38.5005 53.6 38.9005 53.8C41.3005 54.9 43.9005 55.4 46.6005 55.1C47.0005 55 47.3005 54.7 47.3005 54.2L45.4005 44.8C45.1005 44.1 44.3005 43.9 43.9005 44.5Z" fill="#F8B42C"/>
<path d="M41.2004 42.7L31.8004 44.6C31.3004 44.7 30.9004 45.3 31.1004 45.9C32.1004 48.3 33.8004 50.4 35.8004 52C36.2004 52.4 36.9004 52.2 37.2004 51.8L42.2004 44.2C42.7004 43.4 42.1004 42.5 41.2004 42.7Z" fill="#F8B42C"/>
<path d="M44.0006 25.3C43.4006 25.4 42.9006 26 43.0006 26.6L45.1006 36.6C45.3006 37.6 46.6006 37.8 47.1006 37L49.7006 33V26C47.9006 25.5 45.9006 25.2 44.0006 25.3Z" fill="#F8B42C"/>
<path d="M47.9005 38.3C47.5005 38.9 48.0005 39.6 48.7005 39.5L49.7005 39.3V35.6L47.9005 38.3Z" fill="#F8B42C"/>
<path d="M49.1004 41C48.4004 41.1 48.2004 42.2 48.9004 42.5L49.7004 43V40.9L49.1004 41Z" fill="#F8B42C"/>
<path d="M41.5005 26.7C41.4005 26.2 40.8005 25.8 40.2005 26C37.3005 27 34.9005 28.8 33.2005 31C32.8005 31.4 33.0005 32.1 33.4005 32.4L42.2005 38.2C42.9005 38.7 43.8005 38 43.7005 37.2L41.5005 26.7Z" fill="#F8B42C"/>
<path d="M41.6004 39.6L32.6004 33.7C32.2004 33.4 31.6004 33.6 31.4004 34.1C30.2004 36.7 29.8004 39.6 30.3004 42.5C30.7004 42.8 30.9004 42.9 31.3004 43.2L41.3004 41.1C42.0004 41 42.2004 40 41.6004 39.6Z" fill="#F8B42C"/>
<path d="M48.0004 43.7C47.4004 43.3 46.6004 43.8 46.8004 44.6L48.7004 53.8C48.8004 54.3 49.3004 54.5 49.7004 54.4V44.9L48.0004 43.7Z" fill="#F8B42C"/>
<path d="M49.7002 51.1C47.2002 46.2 41.9002 43 36.1002 43.4C28.3002 43.9 22.4002 50.7 22.9002 58.5C23.0002 60.6 23.6002 62.5 24.5002 64.2H49.6002C49.6002 64.1 49.7002 64.1 49.7002 64V51.1Z" fill="#FFC830"/>
<path d="M49 56.8C48.5 50.2 42.8 45.2 36.2 45.6C29.6 46.1 24.6 51.8 25 58.4C25.1 60.6 25.9 62.6 27 64.3H47C48.4 62.2 49.2 59.6 49 56.8Z" fill="#FDE655"/>
<path d="M35.9 60.4L32.5 64.3H37L36.8 60.7C36.7 60.3 36.2 60.1 35.9 60.4Z" fill="#FFC830"/>
<path d="M34.3001 59L27.9001 59.4C27.5001 59.5 27.2001 59.8 27.3001 60.2C27.7001 61.7 28.5001 63.2 29.5001 64.3H31.1001L34.8001 60C35.2001 59.7 34.9001 59 34.3001 59Z" fill="#FFC830"/>
<path d="M37.8003 47.7C37.3003 47.7 36.9003 48.1 37.0003 48.6L37.5003 55.4C37.6003 56.1 38.4003 56.3 38.8003 55.8L43.2003 50.8C43.5003 50.5 43.4003 49.9 43.1003 49.7C41.5003 48.5 39.7003 47.8 37.8003 47.7Z" fill="#FFC830"/>
<path d="M43.9999 51.2L39.0999 56.8C38.7999 57.2 39.0999 57.7 39.4999 57.7L46.4999 57.2C46.6999 57 46.7999 56.8 46.9999 56.6C46.7999 54.5 45.9999 52.7 44.6999 51.3C44.5999 50.9 44.1999 50.9 43.9999 51.2Z" fill="#FFC830"/>
<path d="M46.4001 58.1L39.7001 58.5C39.2001 58.6 39.0001 59.2 39.3001 59.5L44.1001 63.7C44.3001 63.9 44.8001 63.9 45.0001 63.6C46.1001 62.2 46.8001 60.5 47.0001 58.7C47.1001 58.4 46.8001 58.1 46.4001 58.1Z" fill="#FFC830"/>
<path d="M35.2002 47.9C33.2002 48.3 31.4002 49.2 30.0002 50.6C29.8002 50.8 29.8002 51.3 30.1002 51.5L35.4002 56.1C35.8002 56.5 36.5002 56.2 36.4002 55.6L35.9002 48.4C35.9002 48.1 35.5002 47.8 35.2002 47.9Z" fill="#FFC830"/>
<path d="M34.8001 57L29.4001 52.3C29.2001 52.1 28.7001 52.1 28.5001 52.4C27.5001 54 26.9001 55.9 27.0001 57.9C27.2001 58.1 27.4001 58.3 27.6001 58.4L34.5001 57.9C35.0001 57.9 35.2001 57.3 34.8001 57Z" fill="#FFC830"/>
<path d="M37.8003 60.7L38.0003 64.3H43.2003L38.6003 60.3C38.3003 60 37.8003 60.3 37.8003 60.7Z" fill="#FFC830"/>
</g>
<defs>
<clipPath id="clip0_181_10609">
<rect width="64" height="64" fill="white"/>
</clipPath>
</defs>
</svg>
