<svg width="64" height="64" viewBox="0 0 64 64" fill="none" xmlns="http://www.w3.org/2000/svg">
<path d="M17.2871 1.86271C17.2871 1.86271 32.0954 39.6432 60.0511 29.4673C68.6316 26.5445 63.3726 -0.194107 17.2871 1.86271Z" fill="#63B625"/>
<path d="M55.2 33.5C55 33.5 54.9 33.5 54.7 33.6C52.7 44.7 41.9 54.3 27.6 56.7C24.8 57.2 22 57.3 19.3 57.2C17.2 57.1 15.2 56.8 13.3 56.4C6.40003 53.4 0.900027 43.8 0.100027 32.4C-0.499973 23.6 1.90003 15.9 6.10003 11.5C8.70003 9.99999 8.70003 8.69999 11.8 7.79999C13.3 7.39999 17.7 6.99999 19.3 6.69999C34 4.39999 47.6 10.3 52.8 20.6C52.9 20.6 53 20.6 53.1 20.5C56.7 19.9 61.1 22.2 61.7 25.7C62.3 29.2 58.8 32.9 55.2 33.5Z" fill="#FFE664"/>
<path d="M19.3 57.1C18.7 57.2 18.2 57.2 17.6 57.2C16.1 57.2 14.7 56.9 13.3 56.3C6.40003 53.4 0.900027 43.8 0.100027 32.4C-0.499973 23.6 1.90003 15.9 6.10003 11.5C8.40003 9.09999 11.2 7.79999 14.3 7.79999C14.4 7.79999 14.6 7.79999 14.7 7.79999C23.3 8.19999 30.9 19.2 31.8 32.6C32.6 45.4 27.2 55.8 19.3 57.1Z" fill="#FFFFC8"/>
<path d="M17.3001 38.4L19.0001 53.4C19.0001 53.8 19.3001 54.1 19.5001 54C21.6001 53.5 23.5001 52.2 25.1001 50.4C25.3001 50.2 25.3001 49.7 25.1001 49.4L18.0001 38C17.7001 37.5 17.2001 37.8 17.3001 38.4Z" fill="#FFE954"/>
<path d="M8.99997 50.2C10.8 52.1 12.9 53.4 15 54C15.3 54.1 15.5 53.8 15.5 53.4L15.2 38.4C15.2 37.8 14.7 37.4 14.4 37.9L8.79997 49.2C8.69997 49.5 8.79997 49.9 8.99997 50.2Z" fill="#FFE954"/>
<path d="M12.3 29.9L4.3 19.9C4.1 19.6 3.8 19.7 3.7 20C2.7 22.7 2.1 25.8 2 29.2C2 29.6 2.2 29.9 2.4 30L12.1 31.1C12.5 31.1 12.7 30.3 12.3 29.9Z" fill="#FFE954"/>
<path d="M19.3997 35.6L27.3997 45.6C27.5997 45.9 27.8997 45.8 27.9997 45.5C29.0997 42.8 29.7997 39.7 29.8997 36.3C29.8997 35.9 29.6997 35.6 29.4997 35.5L19.5997 34.4C19.1997 34.4 18.9997 35.2 19.3997 35.6Z" fill="#FFE954"/>
<path d="M2.40039 36.1C3.00039 39.4 4.00039 42.5 5.40039 45.1C5.60039 45.4 5.90039 45.5 6.00039 45.2L12.6004 35.4C12.9004 35 12.6004 34.2 12.2004 34.2L2.70039 35.2C2.50039 35.4 2.40039 35.8 2.40039 36.1Z" fill="#FFE954"/>
<path d="M22.9001 14.9C21.0001 12.9 18.9001 11.6 16.7001 11C16.5001 10.9 16.2001 11.2 16.3001 11.6L16.5001 27C16.5001 27.6 17.0001 28 17.3001 27.5L23.0001 15.9C23.2001 15.6 23.1001 15.1 22.9001 14.9Z" fill="#FFE954"/>
<path d="M14.3996 27.1L12.6996 11.8C12.6996 11.4 12.3996 11.1 12.1996 11.2C9.89961 11.7 7.99961 13 6.49961 15C6.29961 15.2 6.29961 15.7 6.49961 16L13.6996 27.6C13.8996 28 14.3996 27.7 14.3996 27.1Z" fill="#FFE954"/>
<path d="M29.4998 29.3C28.8998 25.8 27.8998 22.7 26.3998 19.9C26.1998 19.6 25.8998 19.5 25.7998 19.8L18.9998 29.9C18.6998 30.3 18.9998 31.1 19.3998 31.1L29.1998 30.1C29.3998 30 29.5998 29.7 29.4998 29.3Z" fill="#FFE954"/>
<path d="M35.8004 18.2L29.4004 14.2C29.4004 14.2 31.6004 13.2 33.7004 14.5C35.7004 15.7 35.8004 18.2 35.8004 18.2Z" fill="#FCFF93"/>
<path d="M37.3008 13.9L43.8008 17.8C43.8008 17.8 43.7008 15.4 41.6008 14.1C39.5008 12.8 37.3008 13.9 37.3008 13.9Z" fill="#FCFF93"/>
<path d="M40.6006 21.2L47.1006 25.1C47.1006 25.1 47.0006 22.7 44.9006 21.4C42.8006 20.1 40.6006 21.2 40.6006 21.2Z" fill="#FCFF93"/>
<path d="M62.4268 27C62.4268 27 68.4978 40.9 56.5986 50C46.7635 57.5 29.4004 60 29.4004 60C29.4004 60 31.2217 41.9 43.6066 33.4C53.1988 26.8 62.4268 27 62.4268 27Z" fill="#63B625"/>
</svg>
