<svg width="64" height="64" viewBox="0 0 64 64" fill="none" xmlns="http://www.w3.org/2000/svg">
<g clip-path="url(#clip0_181_10357)">
<path d="M51.9002 43.6C52.1002 46.2 51.4002 50.4 48.9002 51.8C45.8002 53.6 39.0002 52.5 37.9002 49.9C37.7002 49.4 36.9002 49.7 37.1002 50.2C38.3002 52.9 44.8002 53.9 48.2002 52.9C51.9002 51.9 52.9002 46.7 53.5002 43.7C53.6002 43.3 51.9002 43.1 51.9002 43.6Z" fill="#F8AA22"/>
<path d="M51.9002 45.4C50.5002 44.4 50.4002 42.9 50.7002 41.1C50.7002 41.2 50.8002 41.4 50.8002 41.5C50.9002 41.6 51.0002 41.7 51.1002 41.8C52.1002 38.5 53.7002 38.6 55.3002 38.5C53.3002 40.3 56.0002 44 53.2002 45.5C52.8002 45.3 52.4002 45.3 51.9002 45.4Z" fill="#B8601F"/>
<path d="M12.8 39.6C15.5 38.2 17.1 40.4 18.3 41.8C23.1 47.2 28.2 47.6 28.3 47.6C28.3 47.6 33.5 47.2 38.3 41.8C39.5 40.5 41.1 38.3 43.8 39.6C46.5 41 45.7 44.4 45.5 44.9C44 49.3 40.7 53.7 38.9 57.5C38.4 58.6 30.6 59.9 28.4 59.9H28.3C28.3 59.9 28.3 59.9 28.2 59.9C26 59.9 18.2 58.6 17.7 57.5C15.9 53.7 12.6 49.3 11.1 44.9C10.9 44.5 10.1 41 12.8 39.6Z" fill="#C3802A"/>
<path d="M28.3002 55.4C32.8002 55.4 36.4002 50.4 36.4002 44.1C36.4002 37.8 32.8002 32.8 28.3002 32.8C23.8002 32.8 20.2002 37.8 20.2002 44.1C20.2002 50.4 23.8002 55.4 28.3002 55.4Z" fill="#FCD09A"/>
<path d="M41.2002 55.1C39.4002 55.1 35.0002 56 33.7002 58.5C33.3002 59.2 43.7002 60.3 44.4002 58.9C45.1002 57.5 44.4002 55.1 41.2002 55.1Z" fill="#D99B49"/>
<path d="M36.2002 28.6C32.7002 28.3 30.9002 30.9 30.6002 34.5C29.8002 43.1 30.2002 55.2 30.4002 58.4C30.6002 61.9 34.7002 59.9 34.9002 58.4C35.5002 51.9 37.5002 42.7 40.3002 34.8C41.6002 30.8 38.3002 28.7 36.2002 28.6Z" fill="#F79D1E"/>
<path d="M29.2 59.6C29.4 61 30.9 61.5 32 60.9C32.1 61.1 32.3 61.2 32.5 61.3C32.7 61.4 32.9 61.5 33.2 61.4C33.6 61.4 34.1 61.1 34.3 60.7C34.5 60.8 34.7 60.9 34.9 61C35.1 61.1 35.3 61 35.5 61C36.3 60.8 36.7 60.1 36.8 59.4C36.8 58.6 36.4 57.7 35.7 57.4C35.3 57.2 34.5 57.2 34.2 57.7C34 57.4 33.8 57.2 33.5 57.1C33.2 57 32.9 56.9 32.6 57C32.1 57.1 31.8 57.5 31.8 57.9C31.2 57.5 30.5 57.4 30 57.8C29.2 58.1 29.1 59 29.2 59.6Z" fill="#FCD09A"/>
<path d="M15.1999 55.1C16.9999 55.1 21.3999 56 22.6999 58.5C23.0999 59.2 12.6999 60.3 11.9999 58.9C11.2999 57.5 11.9999 55.1 15.1999 55.1Z" fill="#D99B49"/>
<path d="M20.2003 28.6C23.7003 28.3 25.5003 30.9 25.8003 34.5C26.6003 43.1 26.2003 55.2 26.0003 58.4C25.8003 61.9 21.7003 59.9 21.5003 58.4C20.9003 51.9 18.9003 42.7 16.1003 34.8C14.8003 30.8 18.1003 28.7 20.2003 28.6Z" fill="#F79D1E"/>
<path d="M26.6003 57.7C26.0003 57.3 25.3003 57.4 24.8003 57.8C24.7003 57.4 24.5003 57 24.0003 56.9C23.7003 56.9 23.4003 56.9 23.1003 57C22.8003 57.1 22.6003 57.4 22.4003 57.6C22.1003 57.1 21.3003 57.1 20.9003 57.3C20.2003 57.7 19.8003 58.5 19.8003 59.3C19.8003 60 20.3003 60.8 21.1003 60.9C21.3003 61 21.5003 61 21.7003 60.9C21.9003 60.8 22.1003 60.7 22.3003 60.6C22.5003 61 22.9003 61.3 23.4003 61.3C23.6003 61.3 23.9003 61.3 24.1003 61.2C24.3003 61.1 24.5003 60.9 24.6003 60.8C25.7003 61.4 27.2003 61 27.4003 59.5C27.4003 59 27.2003 58.1 26.6003 57.7Z" fill="#FCD09A"/>
<path d="M9.70011 18C9.60011 15.3 10.8001 13.2 13.2001 11.8C12.7001 11.4 12.0001 11.4 11.3001 11.6C11.8001 8.40001 13.1001 6.40001 15.6001 5.80001C14.9001 5.60001 14.1001 5.50001 13.3001 5.60001C14.8001 2.60001 17.4001 1.40001 21.1001 2.20001C21.0001 1.80001 20.5001 1.40001 19.7001 1.00001C21.4001 0.300005 23.2001 0.400006 25.2001 1.20001C25.5001 0.600006 24.8001 -0.499994 24.3001 -1.19999C26.1001 -1.29999 27.5001 -0.799995 28.2001 0.600005C29.0001 -0.799995 30.3001 -1.29999 32.1001 -1.19999C31.6001 -0.599994 30.9001 0.500005 31.2001 1.20001C33.1001 0.500005 35.0001 0.300005 36.7001 1.00001C35.9001 1.40001 35.4001 1.80001 35.3001 2.20001C39.1001 1.40001 41.7001 2.60001 43.1001 5.60001C42.3001 5.50001 41.6001 5.60001 40.8001 5.80001C43.2001 6.40001 44.6001 8.50001 45.1001 11.6C44.4001 11.4 43.7001 11.4 43.2001 11.8C45.6001 13.2 46.8001 15.3 46.7001 18C46.1001 17.9 45.5001 17.7 44.9001 17.7C46.9001 22.4 46.6001 25.7 45.0001 28.2C44.8001 27.6 44.4001 27 43.6001 26.5C43.6001 27.6 43.1001 28.6 42.1001 29.5C41.9001 29.1 41.6001 28.8 41.3001 28.5C40.8001 30.4 39.5001 32.3 37.9001 34C38.0001 33.2 37.7001 32.6 37.2001 32.2C35.9001 35.9 31.3001 38.6 27.9001 39.4C27.2001 37.9 25.9001 36.7 24.1001 35.7C24.1001 36.2 24.3001 36.6 24.6001 37C22.7001 36.7 20.1001 34.2 19.5001 32.2C19.0001 32.6 18.7001 33.2 18.8001 34C17.1001 32.2 15.9001 30.4 15.4001 28.5C15.1001 28.8 14.8001 29.1 14.6001 29.5C13.6001 28.6 13.1001 27.5 13.1001 26.5C12.3001 27 11.9001 27.6 11.7001 28.2C10.1001 25.8 9.80011 22.4 11.8001 17.7C10.9001 17.7 10.3001 17.8 9.70011 18Z" fill="#B8601F"/>
<path d="M23.5002 9.20001C25.7002 8.80001 27.1002 9.40001 28.2002 9.90001C29.3002 9.30001 30.7002 8.70001 32.9002 9.20001C40.3002 10.7 33.6002 28.8 28.2002 29H28.1002C22.8002 28.8 16.1002 10.8 23.5002 9.20001Z" fill="#F79D1E"/>
<path d="M32.5002 15.7C33.2002 15.7 33.8002 15.1 33.8002 14.4C33.8002 13.7 33.2002 13.1 32.5002 13.1C31.8002 13.1 31.2002 13.7 31.2002 14.4C31.2002 15.1 31.8002 15.7 32.5002 15.7Z" fill="#FCD09A"/>
<path d="M32.4003 15.4C32.7003 15.4 33.0003 15 33.0003 14.5C33.0003 14 32.7003 13.6 32.4003 13.6C32.1003 13.6 31.8003 14 31.8003 14.5C31.8003 15 32.1003 15.4 32.4003 15.4Z" fill="#423C39"/>
<path d="M31.7999 14.7C31.9999 14.7 32.1999 14.5 32.1999 14.3C32.1999 14.1 31.9999 13.9 31.7999 13.9C31.5999 13.9 31.3999 14.1 31.3999 14.3C31.3999 14.5 31.5999 14.7 31.7999 14.7Z" fill="white"/>
<path d="M28.1999 30.9C30.2999 30.9 31.9999 29.6 31.9999 28C31.9999 26.4 30.2999 25.1 28.1999 25.1C26.0999 25.1 24.3999 26.4 24.3999 28C24.3999 29.6 26.0999 30.9 28.1999 30.9Z" fill="#FCD09A"/>
<path d="M23.9001 15.7C24.6001 15.7 25.2001 15.1 25.2001 14.4C25.2001 13.7 24.6001 13.1 23.9001 13.1C23.2001 13.1 22.6001 13.7 22.6001 14.4C22.6001 15.1 23.2001 15.7 23.9001 15.7Z" fill="#FCD09A"/>
<path d="M23.9999 15.4C24.2999 15.4 24.5999 15 24.5999 14.5C24.5999 14 24.2999 13.6 23.9999 13.6C23.6999 13.6 23.3999 14 23.3999 14.5C23.3999 15 23.6999 15.4 23.9999 15.4Z" fill="#423C39"/>
<path d="M23.4 14.7C23.6 14.7 23.8 14.5 23.8 14.3C23.8 14.1 23.6 13.9 23.4 13.9C23.2 13.9 23 14.1 23 14.3C23 14.5 23.2 14.7 23.4 14.7Z" fill="white"/>
<path d="M32.7003 17C33.5003 17 34.1003 16.6 34.1003 16.1C34.1003 15.6 33.5003 15.2 32.7003 15.2C31.9003 15.2 31.3003 15.6 31.3003 16.1C31.3003 16.6 31.9003 17 32.7003 17Z" fill="#F79D1E"/>
<path d="M23.6002 17C24.4002 17 25.0002 16.6 25.0002 16.1C25.0002 15.6 24.4002 15.2 23.6002 15.2C22.8002 15.2 22.2002 15.6 22.2002 16.1C22.2002 16.6 22.8002 17 23.6002 17Z" fill="#F79D1E"/>
<path d="M19.2 10.6C17.5 10.6 16.9 8.9 16.9 8.8C16.9 8.7 16.9 8.7 16.8 8.6L16.7 8.5C16.6 8.5 16.6 8.5 16.5 8.5C16.4 8.5 16.4 8.5 16.3 8.5C16.1 8.6 15.8 8.9 16 9.4C16.3 10.3 17.4 11.6 19.4 11.5C19.3 11.2 19.2 10.9 19.2 10.6Z" fill="#FCD09A"/>
<path d="M19.3001 7.8C19.4001 7.8 19.4001 7.8 19.3001 7.8C19.4001 7.6 19.4001 7.5 19.5001 7.3C19.2001 7.6 17.9001 8.6 16.6001 8.4C16.6001 8.4 16.9001 10.4 19.3001 10.7C19.0001 9.8 19.1001 8.8 19.3001 7.8Z" fill="#F79D1E"/>
<path d="M37.2 10.6C38.9 10.6 39.5 8.9 39.5 8.8C39.5 8.7 39.5 8.7 39.6 8.6L39.7 8.5C39.8 8.5 39.8 8.5 39.9 8.5C40 8.5 40 8.5 40.1 8.5C40.3 8.6 40.6 8.9 40.4 9.4C40.1 10.3 39 11.6 37 11.5C37.1 11.2 37.2 10.9 37.2 10.6Z" fill="#FCD09A"/>
<path d="M37.0999 7.8C36.9999 7.6 36.9999 7.5 36.8999 7.3C37.1999 7.6 38.4999 8.6 39.7999 8.4C39.7999 8.4 39.4999 10.4 37.0999 10.7C37.3999 9.8 37.3999 8.8 37.0999 7.8Z" fill="#F79D1E"/>
<path d="M29.6 29.4H26.8C26.4 29.4 26.1 29.3 25.8 29C25.5 28.7 25.4 28.4 25.4 28C25 26.1 24.7 24 25.1 21.9C25.1 21.5 25.2 21.2 25.5 20.9C25.8 20.6 26.1 20.5 26.5 20.5H29.9C30.3 20.5 30.6 20.6 30.9 20.9C31.2 21.2 31.3 21.5 31.3 21.9C31.7 23.9 31.5 26 31.1 28C31.1 28.4 31 28.7 30.7 29C30.3 29.2 30 29.4 29.6 29.4Z" fill="#FCD09A"/>
<path d="M29.2999 28.3H27.0999C26.7999 28.3 26.4999 28.2 26.2999 28C26.0999 27.8 25.9999 27.5 25.9999 27.2C25.6999 25.7 25.3999 24 25.6999 22.3C25.6999 22 25.7999 21.7 25.9999 21.5C26.1999 21.3 26.4999 21.2 26.7999 21.2H29.4999C29.7999 21.2 30.0999 21.3 30.2999 21.5C30.4999 21.7 30.5999 22 30.5999 22.3C30.8999 23.9 30.6999 25.6 30.3999 27.2C30.3999 27.5 30.2999 27.8 30.0999 28C29.8999 28.2 29.5999 28.3 29.2999 28.3Z" fill="#7A3547"/>
<path d="M25.2002 21.9H27.4002L26.7002 23.7C26.7002 23.8 26.6002 23.8 26.6002 23.9C26.5002 23.9 26.5002 24 26.4002 24C26.3002 24 26.3002 24 26.2002 23.9C26.1002 23.9 26.1002 23.8 26.1002 23.7L25.2002 21.9Z" fill="white"/>
<path d="M31.3001 21.9H29.1001L29.8001 23.7C29.8001 23.8 29.9001 23.8 29.9001 23.9C30.0001 23.9 30.0001 24 30.1001 24C30.2001 24 30.2001 24 30.3001 23.9C30.4001 23.9 30.4001 23.8 30.4001 23.7L31.3001 21.9Z" fill="white"/>
<path d="M27.1003 27.1C27.1003 27.1 27.1003 27 27.0003 27H26.9003H26.8003L26.7003 27.1L26.3003 27.9C26.4003 28 26.5003 28.1 26.7003 28.2C26.9003 28.3 27.0003 28.3 27.2003 28.3H27.6003L27.1003 27.1Z" fill="white"/>
<path d="M29.3999 27.1L29.4999 27H29.5999H29.6999L29.7999 27.1L30.1999 27.9C30.0999 28 29.9999 28.1 29.7999 28.2C29.5999 28.3 29.4999 28.3 29.2999 28.3H28.8999L29.3999 27.1Z" fill="white"/>
<path d="M34.7999 22.2C34.1999 21.8 33.5999 21.5 32.9999 21.2C33.0999 21 33.0999 20.7 33.0999 20.5C34.1999 20.5 35.1999 20.7 36.1999 21C38.4999 21.8 39.6999 22.8 39.6999 22.8C39.6999 22.8 38.4999 21.7 36.2999 20.9C35.2999 20.6 34.1999 20.3 33.0999 20.3C33.0999 20 32.9999 19.7 32.9999 19.5C33.6999 19.3 34.3999 19.3 35.0999 19.3C36.4999 19.3 37.9999 19.5 39.3999 19.9C37.9999 19.4 36.4999 19.2 34.9999 19.2C34.2999 19.2 33.6999 19.2 32.9999 19.3C32.3999 16.9 30.1999 16.3 29.3999 15.9C29.5999 16.6 26.8999 16.6 27.0999 15.9C26.2999 16.3 24.1999 16.8 23.4999 19.2C22.7999 19.1 22.1999 19.1 21.4999 19.1C19.9999 19.1 18.4999 19.4 17.0999 19.8C18.4999 19.4 19.8999 19.2 21.3999 19.2C22.0999 19.2 22.7999 19.3 23.4999 19.4C23.3999 19.7 23.3999 20 23.3999 20.2C22.2999 20.3 21.2999 20.5 20.2999 20.8C17.9999 21.6 16.8999 22.7 16.8999 22.7C16.8999 22.7 18.0999 21.7 20.3999 20.9C21.3999 20.6 22.3999 20.4 23.4999 20.4C23.4999 20.7 23.4999 20.9 23.5999 21.1C22.9999 21.4 22.3999 21.7 21.7999 22C19.8999 23.2 19.1999 24.4 19.1999 24.4C19.1999 24.4 19.9999 23.3 21.7999 22.1C22.3999 21.8 22.8999 21.5 23.5999 21.2C23.6999 21.4 23.8999 21.6 24.0999 21.8C24.2999 22 24.4999 22.1 24.7999 22.2C27.0999 23 27.6999 21.5 28.3999 21.5C29.0999 21.5 29.6999 23 31.9999 22.2C32.1999 22.1 32.4999 22 32.6999 21.8C32.8999 21.6 32.9999 21.4 33.1999 21.2C33.7999 21.4 34.3999 21.7 34.9999 22.1C36.8999 23.3 37.5999 24.4 37.5999 24.4C37.5999 24.4 36.6999 23.4 34.7999 22.2Z" fill="#FCD09A"/>
<path d="M31.4999 18C31.4999 18 30.4999 15.6 29.8999 15.3C29.5999 15.1 29.0999 14.9 28.1999 14.9C27.2999 14.9 26.7999 15.1 26.4999 15.3C25.8999 15.6 24.8999 18 24.8999 18L28.1999 19L31.4999 18Z" fill="#D99B49"/>
<path d="M28.2001 18.7C27.3001 18.7 24.9001 17.8 24.9001 17.8C24.6001 19.1 28.2001 21.1 28.2001 21.1C28.2001 21.1 31.8001 19.1 31.5001 17.8C31.5001 17.8 29.2001 18.7 28.2001 18.7Z" fill="#7A3547"/>
<path d="M26.6002 12.4C26.7002 12.1 26.5002 11.8 26.1002 11.6C25.7002 11.4 25.3002 11.5 25.1002 11.8C25.0002 12.1 25.2002 12.4 25.6002 12.6C26.0002 12.8 26.5002 12.7 26.6002 12.4Z" fill="#FFD58A"/>
<path d="M30.9 12.6C31.3 12.4 31.5 12.1 31.4 11.8C31.3 11.5 30.8 11.4 30.4 11.6C30 11.8 29.8 12.1 29.9 12.4C30 12.7 30.4 12.8 30.9 12.6Z" fill="#FFD58A"/>
</g>
<defs>
<clipPath id="clip0_181_10357">
<rect width="64" height="64" fill="white"/>
</clipPath>
</defs>
</svg>
