<svg width="64" height="64" viewBox="0 0 64 64" fill="none" xmlns="http://www.w3.org/2000/svg">
<path d="M59.9999 26.7C49.0999 33.6 48.6999 35.4 29.2999 30.9C11.9999 26.9 10.0999 22.2 5.1999 16.3C-0.100098 10.1 19.9999 1.8 34.5999 4.5C49.0999 7.2 63.2999 24.6 59.9999 26.7Z" fill="#A97E31"/>
<path d="M61.2001 24.5C63.4001 32.3 45.4001 27.2 30.9001 24.5C16.4001 21.8 -2.69987 16.2 4.10013 11.9C8.80013 8.79999 7.80013 1.99999 34.9001 3.19999C60.9001 4.39999 59.9001 20 61.2001 24.5Z" fill="#80401C"/>
<path d="M36.3002 45.5C39.4002 40.3 40.3002 32 38.9002 30.8C37.7002 29.8 30.5002 28.5 26.1002 28.2C25.8002 28.2 25.4002 28.2 25.1002 28.3C24.8002 28.4 24.5002 28.6 24.2002 28.8C23.9002 29 23.7002 29.3 23.6002 29.6C23.5002 29.9 23.4002 30.2 23.4002 30.6C23.2002 33.3 22.3002 36 20.7002 38.2C19.7002 39.7 18.7002 41.2 17.8002 42.8C16.0002 46 14.6002 49.7 13.2002 56.9C12.9002 58.3 17.4002 60.3 23.1002 61.3C28.8002 62.4 33.7002 62.1 33.9002 60.8C33.9002 60.7 33.9002 60.6 33.9002 60.5C34.7002 56 33.4002 50.3 36.3002 45.5Z" fill="white"/>
<path d="M23.5 3.2C23.5 3.2 32.1 2.7 37.3 7.7C42.5 12.7 49.6 13.8 50.5 11.2C51.4 8.5 40.4 1.9 23.5 3.2Z" fill="#662E11"/>
<path d="M35.5 46.9C33.2 47.6 31.1 58.5 31.1 58.5C31.1 58.5 30.8 52.3 28.9 54.5C28.4 55.2 28 56 27.8 56.8C27.6 57.7 27.7 58.5 28 59.4C28 59.4 23.5 55 19.6 57.1C18.5 57.6 17.5 58.6 17 59.7C18.9 60.3 20.7 60.8 22.7 61.2C25.3 61.7 27.9 61.9 30.5 61.9C32.6 61.8 34 61.4 34.2 60.6C34.2 60.5 34.2 60.4 34.2 60.3C34.8 56.4 34 51.5 35.5 46.9Z" fill="#99CA3C"/>
</svg>
