<svg width="95" height="101" viewBox="0 0 95 101" fill="none" xmlns="http://www.w3.org/2000/svg">
<path d="M47.2269 100.25C73.3096 100.25 94.4538 79.2074 94.4538 53.25C94.4538 27.2926 73.3096 6.25 47.2269 6.25C21.1442 6.25 0 27.2926 0 53.25C0 79.2074 21.1442 100.25 47.2269 100.25Z" fill="#400256"/>
<path d="M47.2269 94C73.3096 94 94.4538 72.9574 94.4538 47C94.4538 21.0426 73.3096 0 47.2269 0C21.1442 0 0 21.0426 0 47C0 72.9574 21.1442 94 47.2269 94Z" fill="white"/>
<path d="M42.9553 70.7866L67.0267 47.5539C67.3125 47.2773 67.5153 46.9777 67.6353 46.655C67.7553 46.3323 67.8144 45.9866 67.8125 45.6178C67.8125 45.2491 67.7525 44.9033 67.6325 44.5807C67.5125 44.258 67.3106 43.9584 67.0267 43.6818L42.9553 20.3799C42.2887 19.7345 41.4554 19.4118 40.4554 19.4118C39.4554 19.4118 38.5982 19.7576 37.8839 20.449C37.1696 21.1405 36.8125 21.9472 36.8125 22.8691C36.8125 23.791 37.1696 24.5977 37.8839 25.2892L58.8839 45.6178L37.8839 65.9465C37.2173 66.5918 36.8839 67.3875 36.8839 68.3334C36.8839 69.2793 37.2411 70.097 37.9554 70.7866C38.6696 71.4781 39.503 71.8238 40.4554 71.8238C41.4077 71.8238 42.2411 71.4781 42.9553 70.7866Z" fill="#293671"/>
</svg>
