<svg width="64" height="64" viewBox="0 0 64 64" fill="none" xmlns="http://www.w3.org/2000/svg">
<g clip-path="url(#clip0_181_10783)">
<path d="M25.7001 33.4C14.8001 38 15.2001 48.9 15.2001 48.9H18.7001C18.7001 48.9 17.7001 40.1 25.7001 35.8C29.6001 33.7 34.4001 33.6 38.2001 35.8C46.1001 40.3 45.5001 48.9 45.5001 48.9H48.7001C48.7001 48.9 49.1001 38 38.2001 33.4C34.3001 31.6 29.7001 31.6 25.7001 33.4Z" fill="#AA64F4"/>
<path d="M22.8999 23.5C7.3999 29.7 6.8999 48 6.8999 48H9.7999C9.7999 48 9.9999 32.8 22.9999 26.7C28.6999 24 35.1999 24 40.8999 26.7C53.8999 32.8 54.0999 48 54.0999 48H56.9999C56.9999 48 56.4999 29.7 40.9999 23.5C35.1999 21.1 28.6999 21.1 22.8999 23.5Z" fill="#FFE964"/>
<path d="M23.8998 26.4C10.1998 31.9 9.7998 48 9.7998 48H12.2998C12.2998 48 12.4998 34.6 23.9998 29.3C28.9998 27 34.7998 27 39.8998 29.3C51.3998 34.6 51.5998 48 51.5998 48H54.0998C54.0998 48 53.6998 31.9 39.9998 26.4C34.7998 24.3 29.0998 24.3 23.8998 26.4Z" fill="#AACE38"/>
<path d="M20.6001 17.2C1.2001 25 0.600098 48 0.600098 48H4.2001C4.2001 48 4.5001 28.7 20.9001 21.3C27.8001 18.1 35.8001 18.1 42.7001 21.3C59.1001 28.8 59.4001 48 59.4001 48H63.0001C63.0001 48 62.4001 25 42.9001 17.2C35.8001 14.4 27.8001 14.4 20.6001 17.2Z" fill="#E03D49"/>
<path d="M21.7002 20.2C4.2002 27.2 3.7002 48 3.7002 48H6.9002C6.9002 48 7.2002 30.1 22.7002 23.5C28.5002 21 35.1002 21 40.9002 23.5C56.4002 30.1 56.7002 48 56.7002 48H59.9002C59.9002 48 59.4002 27.2 41.8002 20.2C35.4002 17.6 28.2002 17.6 21.7002 20.2Z" fill="#FC9642"/>
<path d="M24.8002 28.9C12.5002 33.8 12.2002 48 12.2002 48H14.5002C14.5002 48 14.7002 36.2 24.9002 31.4C29.4002 29.3 34.5002 29.3 39.0002 31.4C49.2002 36.2 49.4002 48 49.4002 48H51.7002C51.7002 48 51.3002 33.8 39.1002 28.9C34.5002 27.1 29.3002 27.1 24.8002 28.9Z" fill="#4CA0E5"/>
<path d="M25.4998 31.1C14.1998 35.4 14.4998 48 14.4998 48H16.4998C16.4998 48 16.1998 37.5 25.5998 33.3C29.6998 31.5 34.4998 31.5 38.5998 33.3C47.9998 37.5 47.3998 48 47.3998 48H50.2998C50.2998 48 49.9998 35.4 38.6998 31.1C34.3998 29.5 29.6998 29.5 25.4998 31.1Z" fill="#3667E0"/>
<path d="M17.7 48.5C17.5 47.4 16.8 46.5 15.8 45.9C15.6 45.8 15.4 45.7 15.2 45.6V45.4C15.2 43.2 13.6 41.4 11.6 41.4C9.8 41.4 8.3 42.8 8 44.7C7.8 44.9 7.7 45 7.6 45C7.1 44.6 6.4 44.5 5.8 44.5C4.3 44.5 3 45.4 2.5 46.8C1.5 47.1 0.6 47.7 0 48.5C0.4 48.8 0.9 48.9 1.4 48.9H19.6C19 48.6 18.4 48.4 17.7 48.5Z" fill="white"/>
<path d="M62.4998 47.3C62.1998 46.8 61.6998 46.3 61.0998 46C60.8998 45.9 60.6998 45.8 60.4998 45.7V45.5C60.4998 43.3 58.8998 41.5 56.8998 41.5C55.3998 41.5 54.0998 42.5 53.5998 43.9C52.9998 43.9 52.4998 44.2 51.9998 44.6C51.6998 44.5 51.4998 44.5 51.1998 44.5C50.7998 44.5 50.2998 44.6 49.8998 44.8C49.4998 44.3 48.7998 44 48.1998 44C46.6998 44 45.4998 45.5 45.4998 47.4C44.5998 47.6 43.7998 48.1 43.2998 48.9H61.5998C62.7998 48.9 63.7998 48.1 64.0998 47H63.8998C63.2998 47 62.8998 47.1 62.4998 47.3Z" fill="white"/>
</g>
<defs>
<clipPath id="clip0_181_10783">
<rect width="64" height="64" fill="white"/>
</clipPath>
</defs>
</svg>
