<svg width="64" height="64" viewBox="0 0 64 64" fill="none" xmlns="http://www.w3.org/2000/svg">
<g clip-path="url(#clip0_181_10808)">
<path d="M0 64.6V0H64V64.6H0Z" fill="#77CC62"/>
<path d="M0 0C0 2.9 0 7.9 0 9.5C7.5 11.2 32.5 28.7 32.2 28.9C30 31 15.6 30.2 0 39.3V56.2C0.9 59.1 3 61.9 5.8 64.6H64C64 61.3 64 58.1 64 54.4C54.1 53.9 43.3 49.9 43.3 46.8C43.3 43.2 58.5 41 64 34.3V13.5C56.7 6.7 39 2.4 19.1 0H0Z" fill="#539CE5"/>
<path d="M0 35.1L35.5 20.6C22.9 10.7 7.6 7.8 0 6.9V35.1Z" fill="#77CC62"/>
<path d="M0 33.8V39.6C14.5 32.7 29.9 31.2 32 29.3C32.2 29.1 32.3 28.8 32.3 28.8C32.2 28 32.1 26.6 32.6 25.1C33.3 22.6 35 21.1 35.7 20.6C30.2 20.9 21.5 22.1 11.9 26.6C7 28.9 3.1 31.4 0 33.8Z" fill="#634896"/>
<path d="M16.4 59.9C14.9 59.7 13.4 60.4 12.5 61.5C12.1 56.6 8.5 52.5 3.9 51.7C2.6 51.5 1.3 51.5 0 51.8V64.6H20.3C20.4 62.2 18.7 60.2 16.4 59.9Z" fill="#77CC62"/>
<path d="M7.60008 57.2C6.90008 58.6 5.00008 59.1 5.00008 59.1C5.00008 59.1 4.30008 57.3 5.00008 55.9C5.70008 54.5 7.60008 54 7.60008 54C7.60008 54 8.30008 55.9 7.60008 57.2Z" fill="#54B558"/>
<path d="M7.5998 61.7C6.2998 61.8 5.2998 60.6 5.2998 60.6C5.2998 60.6 6.2998 59.4 7.4998 59.3C8.7998 59.2 9.7998 60.4 9.7998 60.4C9.7998 60.4 8.7998 61.7 7.5998 61.7Z" fill="#54B558"/>
<path d="M3.10023 57.1C3.90023 58.1 3.50023 59.6 3.50023 59.6C3.50023 59.6 1.90023 59.5 1.20023 58.5C0.500233 57.5 0.800233 56 0.800233 56C0.800233 56 2.30023 56.1 3.10023 57.1Z" fill="#54B558"/>
<path d="M44.5999 45C43.7999 45.6 43.3999 46.1 43.3999 46.7C43.3999 49.8 54.0999 53.9 64.0999 54.3V35.1H57.3999L44.5999 45Z" fill="#54B558"/>
<path d="M63.9998 49.3V38.5C62.9998 37.7 62.2998 36.9 61.8998 36.2C62.5998 36.9 63.3998 37.6 63.9998 37.4V30.7C62.0998 29.8 60.3998 28.6 59.2998 26.6C60.4998 27.6 61.8998 28.3 62.6998 28C63.3998 27.7 62.9998 27 62.5998 26.6C62.9998 26.8 63.5998 27 63.9998 27V25.5C62.8998 24.6 61.4998 24 59.8998 23.2C58.6998 22.6 57.7998 21.8 57.3998 20.7C57.7998 21.2 58.6998 22.3 59.1998 21.9C59.6998 21.5 59.2998 20.7 58.9998 20.4C59.8998 20.7 60.9998 20.4 61.3998 19.2C60.6998 19.4 59.1998 19.6 57.8998 18.5C55.5998 16.5 54.7998 13.8 54.4998 13.1C54.4998 13.9 54.1998 16.5 52.8998 18.5C51.8998 20.1 49.9998 20.2 49.3998 20.3C49.5998 21.1 51.0998 21.7 51.7998 21.3V21.4C51.6998 21.7 51.8998 22 52.1998 22.1C52.6998 22.2 53.1998 22 53.4998 21.5C53.7998 21.1 53.8998 20.8 54.0998 20.5C53.7998 22.5 52.3998 24.3 50.5998 25.2C49.3998 25.8 47.7998 26 47.0998 27.2C47.3998 27.7 48.3998 27.3 48.8998 26.9C48.6998 27.2 48.4998 27.6 48.4998 27.9C48.4998 28.3 48.6998 28.6 49.0998 28.7C49.3998 28.7 49.5998 28.6 49.7998 28.5C50.2998 28.2 50.6998 27.9 50.9998 27.5V27.6C50.8998 28 51.0998 28.4 51.4998 28.5C51.9998 28.6 52.4998 28.4 52.7998 28C53.1998 27.6 53.4998 27.3 53.7998 26.8C53.2998 30 50.5998 32.3 47.7998 33.8C46.2998 34.6 44.5998 35.3 43.4998 36.6C44.2998 37.6 47.0998 36.8 48.3998 35.4C48.0998 35.9 47.6998 36.4 47.3998 36.9C47.2998 37.2 47.2998 37.5 47.3998 37.7C47.5998 38 48.3998 38 48.6998 37.8C49.5998 37.2 50.0998 36.4 50.6998 35.5C50.2998 36.3 49.2998 37.8 50.0998 38.1C50.8998 38.4 51.6998 37.5 52.2998 36.6C50.8998 40.6 47.1998 41.1 45.2998 41.9C43.7998 42.5 41.6998 44 41.7998 45.6C43.5998 44.7 43.5998 44.7 44.2998 44.2C43.9998 45 43.4998 46 44.0998 46.1C44.7998 46.3 46.1998 45.7 46.4998 45C46.1998 45.6 45.6998 47 46.4998 47.2C47.2998 47.5 48.3998 46.7 49.4998 45.5C49.4998 45.7 48.5998 47.7 49.6998 48.1C50.7998 48.4 51.9998 47.3 52.7998 46.3C52.5998 47 52.0998 48.6 52.8998 49C53.9998 49.6 55.6998 48.4 56.2998 46.7C56.5998 47.5 57.8998 50.1 59.4998 49.8C60.4998 49.6 60.2998 48.1 60.2998 47.3C60.8998 48.1 62.2998 49.3 63.9998 49.3Z" fill="#1B8751"/>
<path d="M41.8001 58.1C40.4001 58.1 39.2001 57.4 38.6001 56.3C38.6001 58 40.0001 59.4 41.8001 59.4C43.5001 59.4 45.0001 58 45.0001 56.3C44.4001 57.4 43.2001 58.1 41.8001 58.1Z" fill="#86C6F2"/>
<path d="M35.4998 58.1C34.0998 58.1 32.8998 57.4 32.2998 56.3C32.2998 58 33.6998 59.4 35.4998 59.4C37.1998 59.4 38.6998 58 38.6998 56.3C38.0998 57.4 36.8998 58.1 35.4998 58.1Z" fill="#86C6F2"/>
<path d="M48.2 58.1C46.8 58.1 45.6 57.4 45 56.3C45 58 46.4 59.4 48.2 59.4C49.9 59.4 51.4 58 51.4 56.3C50.8 57.4 49.6 58.1 48.2 58.1Z" fill="#86C6F2"/>
<path d="M18.8001 45.4C17.4001 45.4 16.2001 44.7 15.6001 43.6C15.6001 45.3 17.0001 46.7 18.8001 46.7C20.5001 46.7 22.0001 45.3 22.0001 43.6C21.4001 44.7 20.2001 45.4 18.8001 45.4Z" fill="#86C6F2"/>
<path d="M12.4002 45.4C11.0002 45.4 9.8002 44.7 9.2002 43.6C9.2002 45.3 10.6002 46.7 12.4002 46.7C14.1002 46.7 15.6002 45.3 15.6002 43.6C15.0002 44.7 13.8002 45.4 12.4002 45.4Z" fill="#86C6F2"/>
<path d="M25.0999 45.4C23.6999 45.4 22.4999 44.7 21.8999 43.6C21.8999 45.3 23.2999 46.7 25.0999 46.7C26.7999 46.7 28.2999 45.3 28.2999 43.6C27.6999 44.7 26.4999 45.4 25.0999 45.4Z" fill="#86C6F2"/>
<path d="M37.7 10.6C36.3 10.6 35.1 9.9 34.5 8.8C34.5 10.5 35.9 11.9 37.7 11.9C39.4 11.9 40.9 10.5 40.9 8.8C40.3 9.9 39.1 10.6 37.7 10.6Z" fill="#86C6F2"/>
<path d="M43.9998 10.6C42.5998 10.6 41.3998 9.9 40.7998 8.8C40.7998 10.5 42.1998 11.9 43.9998 11.9C45.6998 11.9 47.1998 10.5 47.1998 8.8C46.5998 9.9 45.3998 10.6 43.9998 10.6Z" fill="#86C6F2"/>
</g>
<defs>
<clipPath id="clip0_181_10808">
<rect width="64" height="64" fill="white"/>
</clipPath>
</defs>
</svg>
