<svg width="64" height="64" viewBox="0 0 64 64" fill="none" xmlns="http://www.w3.org/2000/svg">
<path d="M59.8002 13.8C59.8002 13.8 52.4002 41.8 31.1002 41.6C9.9002 41.4 4.2002 14 4.2002 14L29.6002 24.1L38.1002 25.5L59.8002 13.8Z" fill="#E8887E"/>
<path d="M4.2002 14C7.5002 15.4 10.7002 16.4 14.0002 17.2L32.0002 22L50.3002 16.8C56.2002 15.4 59.7002 13.9 59.7002 13.9C59.7002 13.9 55.6002 23.3 46.0002 28.9C42.1002 31.2 37.1002 31.2 31.2002 31.3C25.6002 31.3 21.1002 31.5 17.4002 29.4C7.7002 23.9 4.2002 14 4.2002 14Z" fill="#2A2A2C"/>
<path d="M32.5 22.8C43.2 22.5 50.3 16.8 50.3 16.8C41.8 18.9 28.3 20.7 14 17.2C14 17.2 21.8 23.1 32.5 22.8Z" fill="white"/>
<path d="M31.6004 15.6H12.4004C12.4004 15.6 12.5004 34.4 13.5004 40.4C16.1004 56.1 24.0004 61.2 31.6004 61.2C39.2004 61.2 47.1004 56.1 49.7004 40.4C50.7004 34.3 50.8004 15.6 50.8004 15.6H31.6004Z" fill="#BF5656"/>
<path d="M59.8002 13.8C45.3002 15.2 39.5002 6.5 31.3002 15.5C23.9002 6.8 15.8002 14.9 4.2002 14C4.2002 14 18.3002 21.1 32.1002 20.9C45.8002 20.7 59.8002 13.8 59.8002 13.8Z" fill="#E8887E"/>
<path d="M31.6 23.7V60C31.6 60 29.1 42.8 29.4 40.2C29.7 37.5 31.6 23.7 31.6 23.7Z" fill="#BF4B56"/>
</svg>
