<svg width="64" height="64" viewBox="0 0 64 64" fill="none" xmlns="http://www.w3.org/2000/svg">
<path d="M59.9001 32.3C58.6001 47.7 44.2001 57.8 31.0001 57.6C19.1001 57.4 11.4001 49 10.6001 48C9.10008 46.2 3.60008 39.7 3.70008 29.9C3.80008 18.1 11.8001 10.8 13.2001 9.5C13.8001 9 25.2001 -0.599995 39.4001 3.3C51.7001 6.8 61.1001 18.7 59.9001 32.3Z" fill="#70BC46"/>
<path d="M51.0002 11.4H43.7002L44.3002 11.5L47.6002 12.6L49.1002 13.9H48.3002C48.3002 13.9 50.8002 14.5 51.9002 15.7C53.0002 16.9 53.8002 18.4 53.8002 18.4C53.8002 18.4 55.9002 19.7 56.8002 20.8C57.6002 21.9 59.1002 24.1 59.1002 24.1C59.1002 24.1 58.8002 28.7 58.5002 27.8C58.3002 26.9 58.6002 29.8 58.5002 29.9C58.4002 30 59.2002 33.1 59.1002 34.1C59.0002 35 58.0002 37 57.6002 37.5C57.4002 37.8 57.2002 40.9 57.0002 42.9C59.1002 39 60.3002 34.6 60.3002 30C60.3002 23.5 58.0002 17.5 54.1002 12.8H53.6002L51.0002 11.4Z" fill="#359348"/>
<path d="M35.0999 54.2C35.0999 54.2 34.3999 51.1 35.0999 51C35.8999 50.9 40.1999 47.9 40.1999 47.9L40.9999 44.2L43.0999 41.9L44.1999 37.4L44.3999 36C44.3999 36 45.5999 33.4 45.5999 33.1C45.5999 32.8 45.8999 28.5 45.7999 28.6C45.5999 28.7 46.4999 26.1 46.5999 25.6C46.6999 25.1 46.0999 22.6 45.7999 22.5C45.5999 22.4 45.1999 20.8 45.3999 20C45.5999 19.2 45.7999 17 45.3999 16.8C44.9999 16.6 44.3999 15.7 44.2999 15.4C44.2999 15.1 43.4999 14 43.4999 13.4C43.4999 13.4 43.4999 13.3 43.4999 13.2L41.9999 16.8L42.1999 21.3L38.6999 27C38.6999 27 37.3999 34.4 37.6999 34.9C37.9999 35.3 33.8999 37.8 33.7999 38.2C33.6999 38.6 32.0999 45 32.0999 45L29.2999 51V53.4L26.7999 55.9L26.3999 57C27.7999 57.3 29.2999 57.4 30.7999 57.5L33.2999 55.8L35.0999 54.2Z" fill="#359348"/>
<path d="M16.1002 52.5C14.7002 51.2 13.7002 50.3 12.9002 48.7C12.3002 47.7 11.9002 46.5 11.8002 46.5C11.6002 46.5 12.1002 47.9 11.9002 48C11.6002 48.2 9.6002 45.3 8.6002 41.9C8.3002 40.8 8.0002 39.9 7.9002 38.7C7.8002 36.7 8.5002 34.9 8.3002 34.8C8.2002 34.8 7.9002 36.1 7.7002 36.1C7.5002 36.1 7.4002 34.4 7.4002 33.1C7.4002 31.5 7.8002 30 8.9002 27C9.5002 25.5 10.3002 23.6 11.3002 21.4C12.6002 20.8 14.0002 20 13.8002 19.2C13.8002 18.9 13.6002 18.8 13.6002 18.6C13.5002 17.6 15.5002 16.6 17.1002 15.8C18.5002 15.1 20.4002 14.3 22.7002 13.3C22.8002 13 22.9002 12.6 23.3002 12.3C23.9002 11.7 24.6002 11.6 26.6002 11.6C28.6002 11.5 29.6002 11.4 30.9002 11.4C31.9002 11.4 32.6002 11.4 33.2002 11.4C33.0002 11.2 32.8002 11 32.8002 10.7C32.9002 10.3 34.5002 10.4 36.4002 10.5C38.0002 10.6 40.0002 10.8 42.4002 11C41.2002 11.2 40.3002 11.6 39.7002 11.9C38.9002 12.3 38.3002 12.6 37.7002 12.4C37.3002 12.3 37.3002 12 36.8002 11.9C36.1002 11.7 35.5002 12.1 35.3002 12.2C32.6002 13.5 21.8002 13.6 15.2002 21.1C10.0002 27.1 9.4002 36 11.4002 42.7C12.4002 46.2 17.6002 52.3 19.7002 54.7C21.1002 55.4 22.6002 55.9 24.2002 56.4C24.4002 55.7 24.6002 54.6 24.8002 54.3C25.0002 53.8 24.6002 52.5 24.9002 52.5C25.2002 52.5 27.3002 49.2 27.3002 48.3C27.3002 47.5 28.5002 44.2 28.5002 44.2L30.6002 39.8C30.6002 39.8 32.4002 35.8 32.4002 34.8C32.4002 33.8 33.9002 30.7 34.1002 30.4C34.2002 30.1 35.5002 27.7 35.5002 27.7L35.0002 26.4C35.0002 26.4 36.4002 22.6 36.5002 22C36.6002 21.4 39.4002 17.7 39.4002 17.7L38.0002 19.3L38.6002 16.8L40.9002 14.3L40.6002 13L42.1002 11.5L43.3002 12.9C43.3002 12.3 43.3002 11.7 43.3002 11.7V11.6L46.8002 16.2L47.8002 19.5C47.8002 19.5 49.0002 21.6 49.0002 22.2C49.0002 22.7 48.8002 25 49.0002 25.3C49.2002 25.5 49.4002 28 49.7002 29.5C50.0002 31 50.0002 33.6 50.0002 33.6L48.2002 34.9C48.2002 34.9 48.2002 37.4 48.2002 37.9C48.2002 38.4 48.2002 40.5 48.2002 40.9C48.2002 41.3 47.0002 42.4 46.8002 43C46.6002 43.6 43.2002 46.7 43.2002 46.7C43.2002 46.7 43.2002 49.6 43.0002 50C42.8002 50.3 41.5002 52.4 40.9002 52.7C40.4002 52.9 37.0002 55.4 37.0002 55.4C37.0002 55.4 35.1002 57.1 35.1002 57.6C40.5002 57 45.3002 55 49.4002 52L51.0002 48.8L52.4002 47.3L51.6002 45.2C51.6002 45.2 53.6002 43 53.7002 42.3C53.8002 41.6 55.6002 37.5 55.6002 37.5L54.2002 37.9L55.6002 32C55.6002 32 56.1002 27.2 55.6002 26.8C55.1002 26.4 54.4002 21.6 53.7002 21.6C53.1002 21.6 51.6002 20.4 51.6002 20.4L48.9002 15.8L43.6002 11.7L43.5002 11.8H43.6002L45.6002 9.8H47.4002L49.8002 8.9C48.1002 7.5 46.2002 6.4 44.2002 5.4L44.4002 6.2L45.4002 8.1L43.1002 11.7L42.5002 9.2L43.1002 7.8L41.4002 6.2L41.1002 4.3C38.2002 3.3 35.1002 2.8 31.9002 2.8C31.8002 2.8 31.6002 2.8 31.5002 2.8C32.3002 3.7 33.3002 3.9 33.3002 3.9C33.3002 3.9 34.5002 3.3 36.0002 3.8C37.5002 4.3 39.7002 6.7 39.7002 6.7C39.7002 6.7 42.5002 9.1 41.8002 11.1L39.4002 8.8L39.0002 7.7C39.0002 7.7 36.9002 7.4 36.0002 6.6C35.1002 5.8 34.1002 5 34.1002 5C34.1002 5 29.6002 5.3 28.7002 5C28.0002 4.4 28.0002 4.1 27.4002 4.1C26.8002 4.1 22.5002 5.1 20.8002 5.2C20.2002 5.2 19.7002 5.2 19.3002 5.2C13.7002 8.1 9.2002 12.5 6.5002 18C6.7002 17.7 7.0002 17.3 7.4002 17.2C8.3002 16.7 9.0002 16.1 9.0002 16.1C9.0002 14.7 9.5002 14 9.8002 13.6C9.9002 13.5 10.0002 13.4 11.5002 12.2C12.3002 11.6 12.7002 11.3 12.8002 11.2C13.4002 10.9 14.1002 10.4 15.2002 10.1C16.0002 9.7 16.6002 9.4 17.3002 9C18.1002 8.9 18.8002 8.8 19.7002 8.7C19.7002 8.3 19.6002 8 19.6002 7.6C20.3002 7.2 21.8002 6.4 23.8002 6.4C25.3002 6.4 26.5002 6.7 27.2002 7C28.0002 7.1 28.7002 7.2 29.6002 7.3C31.0002 7.4 32.4002 7.5 33.6002 7.4C35.4002 7.9 37.1002 8.5 38.9002 9C40.2002 9.8 40.8002 10.3 40.7002 10.4C40.6002 10.7 39.2002 10.5 36.5002 9.9V9.1C35.1002 9.1 33.9002 9.2 33.1002 9.3C31.7002 9.5 31.4002 9.7 30.6002 9.6C30.6002 9.6 30.1002 9.6 27.8002 9.1C27.6002 9.3 27.2002 9.6 26.6002 9.7C26.3002 9.8 25.9002 9.8 24.7002 9.6C23.3002 9.4 23.3002 9.4 23.0002 9.4C22.1002 9.6 22.2002 10.6 21.3002 11C20.3002 11.4 19.9002 10.6 18.8002 11C17.6002 11.3 16.7002 12.5 16.7002 12.5C16.1002 12.5 15.4002 12.5 14.8002 12.5C14.0002 13 13.3002 13.5 12.5002 14C12.1002 14.9 11.8002 15.8 11.4002 16.7L9.6002 17.3C9.6002 17.3 8.5002 18.8 7.3002 20.7C6.4002 22 4.9002 24.3 4.0002 25.5C3.8002 26.9 3.7002 28.4 3.7002 29.8C3.7002 39.8 9.1002 48.5 17.2002 53.4C16.8002 53.2 16.4002 52.8 16.1002 52.5Z" fill="#359348"/>
<path d="M27.5 2.60001L29.1 2.40001C28.6 2.50001 28 2.60001 27.5 2.60001Z" fill="#70BC46"/>
<path d="M15.4 21.2C21.9 13.7 32.8 13.6 35.5 12.3C35.7 12.2 36.3 11.9 37 12C37.4 12.1 37.5 12.4 37.9 12.5C38.6 12.7 39.1 12.3 39.9 12C40.5 11.7 41.4 11.3 42.6 11.1C40.3 10.9 38.3 10.7 36.6 10.6C34.7 10.4 33.1 10.3 33 10.8C33 11 33.2 11.2 33.4 11.5C32.8 11.5 32.1 11.5 31.1 11.5C29.8 11.5 28.8 11.5 26.8 11.7C24.8 11.8 24.1 11.9 23.5 12.4C23.1 12.7 22.9 13.1 22.9 13.4C20.6 14.3 18.7 15.2 17.3 15.9C15.7 16.7 13.7 17.7 13.8 18.7C13.8 18.9 14 19 14 19.3C14.1 20.2 12.7 20.9 11.5 21.5C10.5 23.7 9.7 25.7 9.1 27.1C7.9 30.1 7.6 31.6 7.6 33.3C7.5 34.6 7.6 36.3 7.9 36.3C8 36.3 8.3 35 8.4 35C8.5 35 7.9 36.8 8 38.9C8 40.1 8.3 41 8.7 42.1C9.8 45.5 11.7 48.4 12 48.2C12.2 48.1 11.8 46.7 11.9 46.7C12 46.7 12.5 47.8 13 48.9C13.8 50.4 14.8 51.4 16.2 52.7C16.5 53 16.9 53.4 17.4 53.7C18.2 54.2 19.1 54.6 19.9 55C17.7 52.6 12.6 46.5 11.5 43C9.5 36.2 10.1 27.3 15.4 21.2Z" fill="#276A38"/>
<path d="M9.7 17.4L11.5 16.8C11.9 15.9 12.2 15 12.6 14.1C13.4 13.6 14.1 13.1 14.9 12.6C15.5 12.6 16.2 12.6 16.8 12.6C16.8 12.6 17.8 11.4 18.9 11.1C20.1 10.7 20.6 11.5 21.4 11.1C22.4 10.7 22.2 9.70001 23.1 9.50001C23.3 9.50001 23.3 9.50001 24.8 9.70001C26.1 9.90001 26.3 9.90001 26.7 9.80001C27.3 9.70001 27.7 9.40001 27.9 9.20001C30.2 9.70001 30.7 9.70001 30.7 9.70001C31.6 9.70001 31.9 9.60001 33.2 9.40001C34 9.30001 35.1 9.20001 36.6 9.20001V10.1C39.3 10.8 40.7 11 40.8 10.6C40.9 10.4 40.3 9.90001 39 9.20001C37.2 8.70001 35.5 8.10001 33.7 7.60001C32.5 7.60001 31.2 7.60001 29.7 7.50001C29 7.10001 28.1 7.00001 27.4 6.90001C26.7 6.60001 25.5 6.20001 24 6.30001C21.9 6.30001 20.4 7.10001 19.7 7.50001C19.7 7.80001 19.8 8.20001 19.8 8.50001C19 8.60001 18.3 8.70001 17.4 8.80001C16.6 9.20001 16 9.50001 15.3 9.90001C14.2 10.2 13.4 10.7 12.9 11C12.7 11.1 12.3 11.4 11.6 12C10.1 13.2 9.9 13.3 9.9 13.4C9.6 13.8 9.1 14.6 9.1 15.9C9.1 15.9 8.3 16.5 7.4 17C7 17.4 6.6 17.6 6.4 18C5.2 20.3 4.4 22.9 4 25.6C4.8 24.4 6.4 22.1 7.3 20.8C8.6 18.9 9.7 17.4 9.7 17.4Z" fill="#276A38"/>
<path d="M27.2999 4.1C27.8999 4.1 27.8999 4.4 28.7999 4.7C29.5999 5 34.1999 4.7 34.1999 4.7C34.1999 4.7 35.1999 5.5 36.0999 6.3C36.9999 7.1 39.0999 7.4 39.0999 7.4L39.4999 8.5L41.8999 10.8C42.5999 8.8 39.7999 6.4 39.7999 6.4C39.7999 6.4 37.6999 4 36.0999 3.5C34.5999 3 33.3999 3.6 33.3999 3.6C33.3999 3.6 32.4999 3.3 31.6999 2.5C30.8999 2.5 29.9999 2.5 29.1999 2.6L27.5999 2.8C24.6999 3.2 21.8999 4.1 19.3999 5.4C19.7999 5.4 20.2999 5.4 20.8999 5.4C22.3999 5.1 26.7999 4.1 27.2999 4.1Z" fill="#276A38"/>
<path d="M43.1002 7.3L42.5002 8.7L43.1002 11.2L45.4002 7.6L44.4002 5.7L44.3002 5C43.3002 4.5 42.2002 4.1 41.2002 3.8L41.5002 5.7L43.1002 7.3Z" fill="#276A38"/>
<path d="M43.5 11.5H43.6L43.5 11.4V11.5Z" fill="#2E4923"/>
<path d="M45.7002 9.5L43.7002 11.4H51.0002L53.7002 12.7H54.1002C52.9002 11.2 51.4002 9.8 49.9002 8.5L47.5002 9.4L45.7002 9.5Z" fill="#276A38"/>
<path d="M59.1001 34.1C59.2001 33.2 58.5001 30 58.5001 29.9C58.6001 29.8 58.2001 26.8 58.5001 27.8C58.8001 28.8 59.1001 24.1 59.1001 24.1C59.1001 24.1 57.7001 21.8 56.8001 20.8C56.0001 19.8 53.8001 18.4 53.8001 18.4C53.8001 18.4 52.9001 17 51.9001 15.7C50.9001 14.5 48.3001 13.8 48.3001 13.8H49.1001L47.6001 12.5L44.3001 11.4L43.7001 11.3L49.0001 15.3L51.7001 19.9C51.7001 19.9 53.2001 21.1 53.8001 21.1C54.4001 21.1 55.2001 25.9 55.7001 26.3C56.2001 26.7 55.7001 31.5 55.7001 31.5L54.3001 37.4L55.7001 37C55.7001 37 54.0001 41.1 53.8001 41.8C53.7001 42.5 51.7001 44.7 51.7001 44.7L52.5001 46.8L51.1001 48.3L49.5001 51.5C52.6001 49.1 55.2001 46.1 57.1001 42.6C57.3001 40.7 57.5001 37.5 57.7001 37.2C57.9001 37 59.0001 35 59.1001 34.1Z" fill="#276A38"/>
<path d="M29.3003 53.4V51L32.0003 45.1C32.0003 45.1 33.6003 38.7 33.7003 38.2C33.8003 37.8 37.8003 35.3 37.6003 34.9C37.3003 34.5 38.6003 27 38.6003 27L42.1003 21.2L42.0003 16.7L43.4003 13.2C43.4003 13 43.4003 12.8 43.4003 12.6L42.2003 11.2L40.7003 12.7L41.0003 14L38.7003 16.5L38.0003 19.3L39.5003 17.9C39.5003 17.9 36.7003 21.6 36.6003 22.2C36.5003 22.8 35.1003 26.6 35.1003 26.6L35.6003 28C35.6003 28 34.2003 30.4 34.2003 30.7C34.1003 31 32.5003 34.1 32.5003 35.1C32.5003 36.1 30.7003 40.1 30.7003 40.1L28.6003 44.5C28.6003 44.5 27.4003 47.8 27.4003 48.6C27.4003 49.4 25.2003 52.8 25.0003 52.8C24.8003 52.8 25.1003 54.1 24.9003 54.6C24.8003 55 24.5003 56 24.3003 56.7C25.0003 56.9 25.7003 57.1 26.4003 57.2L26.8003 56.1L29.3003 53.4Z" fill="#276A38"/>
<path d="M37.0999 55.2C37.0999 55.2 40.4999 52.7 40.9999 52.5C41.4999 52.3 42.7999 50.2 43.0999 49.8C43.3999 49.5 43.2999 46.5 43.2999 46.5C43.2999 46.5 46.6999 43.4 46.8999 42.8C47.0999 42.2 48.3999 40.8 48.3999 40.4C48.3999 40 48.3999 37.9 48.3999 37.4C48.3999 37 48.3999 34.4 48.3999 34.4L50.1999 33.1C50.1999 33.1 50.1999 30.6 49.8999 29C49.5999 27.5 49.3999 25 49.1999 24.8C48.9999 24.6 49.1999 22.3 49.1999 21.7C49.1999 21.2 47.9999 19 47.9999 19L46.9999 15.7L43.3999 11.1V11.2C43.3999 11.2 43.3999 11.9 43.3999 12.4C43.3999 12.6 43.3999 12.8 43.3999 13C43.3999 13 43.3999 13.1 43.3999 13.2C43.3999 13.7 44.1999 14.8 44.1999 15.2C44.1999 15.5 44.9999 16.4 45.2999 16.6C45.5999 16.8 45.4999 19 45.2999 19.8C45.0999 20.6 45.4999 22.1 45.6999 22.3C45.8999 22.4 46.5999 25 46.4999 25.4C46.3999 25.9 45.5999 28.6 45.6999 28.4C45.8999 28.3 45.4999 32.6 45.4999 32.9C45.4999 33.2 44.2999 35.8 44.2999 35.8L44.0999 37.2L43.0999 42L40.9999 44.2L40.1999 48C40.1999 48 35.7999 50.9 35.0999 51.1C34.3999 51.2 35.0999 54.3 35.0999 54.3L33.3999 56L30.8999 57.8C31.2999 57.8 31.6999 57.8 32.0999 57.8C33.0999 57.8 34.1999 57.8 35.1999 57.6C35.1999 57 37.0999 55.2 37.0999 55.2Z" fill="#276A38"/>
<path d="M20.7001 55.2C26.6001 41.7 32.4001 28.2 38.3001 14.7C36.9001 14.3 28.8001 12.1 21.1001 16.8C15.2001 20.4 13.2001 25.9 12.4001 27.9C9.10014 36.9 12.8001 44.8 13.8001 46.9C16.0001 51.1 18.9001 53.8 20.7001 55.2Z" fill="#EF5667"/>
<path d="M26.5 24.1C26.1 24.1 25.3 24.1 24.6 23.8C24.1 23.6 24 23.3 24 23.2C24 23 24 22.9 24 22.8C24.1 22.7 24.2 22.6 24.4 22.5C24.6 22.5 24.8 22.5 25.2 22.7C25.6 23 26.1 23.4 26.5 24.1Z" fill="#020303"/>
<path d="M28.4004 28.8C28.0004 28.8 27.2004 28.8 26.5004 28.5C26.0004 28.3 25.9004 28 25.9004 27.9C25.9004 27.7 25.9004 27.6 25.9004 27.5C26.0004 27.4 26.1004 27.3 26.3004 27.2C26.5004 27.2 26.7004 27.2 27.1004 27.4C27.5004 27.6 28.0004 28 28.4004 28.8Z" fill="#020303"/>
<path d="M23 28.6C22.6 28.6 21.8 28.6 21.1 28.2C20.7 27.9 20.5 27.7 20.5 27.6C20.5 27.4 20.5 27.3 20.6 27.2C20.7 27.1 20.8 27 21 26.9C21.2 26.9 21.4 26.9 21.8 27.2C22.2 27.4 22.6 27.8 23 28.6Z" fill="#020303"/>
<path d="M25.7002 33.3C25.3002 33.3 24.5002 33.3 23.8002 33C23.3002 32.8 23.2002 32.5 23.2002 32.4C23.2002 32.2 23.2002 32.1 23.2002 32C23.3002 31.9 23.4002 31.8 23.6002 31.7C23.8002 31.7 24.0002 31.7 24.4002 31.9C24.8002 32.1 25.3002 32.5 25.7002 33.3Z" fill="#020303"/>
<path d="M20.8003 33.8C20.4003 33.9 19.6003 33.9 18.9003 33.6C18.4003 33.4 18.3003 33.2 18.3003 33.1C18.3003 32.9 18.3003 32.8 18.3003 32.7C18.3003 32.6 18.5003 32.4 18.7003 32.4C18.9003 32.3 19.1003 32.4 19.5003 32.6C19.8003 32.7 20.3003 33 20.8003 33.8Z" fill="#020303"/>
<path d="M23.9004 38.2C23.5004 38.2 22.7004 38.2 22.0004 38C21.5004 37.8 21.4004 37.6 21.4004 37.4C21.4004 37.2 21.4004 37.1 21.4004 37C21.5004 36.9 21.6004 36.8 21.8004 36.7C22.0004 36.7 22.2004 36.7 22.6004 36.9C23.0004 37.1 23.4004 37.5 23.9004 38.2Z" fill="#020303"/>
<path d="M19.7002 39.6C19.3002 39.7 18.5002 39.7 17.8002 39.4C17.3002 39.2 17.2002 39 17.2002 38.9C17.2002 38.7 17.2002 38.6 17.2002 38.5C17.2002 38.4 17.4002 38.2 17.6002 38.2C17.8002 38.1 18.0002 38.2 18.4002 38.4C18.8002 38.6 19.3002 38.9 19.7002 39.6Z" fill="#020303"/>
<path d="M31.2002 21.1C30.8002 21.1 30.0002 21.1 29.3002 20.8C28.8002 20.6 28.7002 20.3 28.7002 20.2C28.7002 20 28.7002 19.9 28.7002 19.8C28.8002 19.7 28.9002 19.6 29.1002 19.5C29.3002 19.5 29.5002 19.5 29.9002 19.7C30.3002 20 30.8002 20.4 31.2002 21.1Z" fill="#020303"/>
<path d="M31.1001 25.2C30.7001 25.2 29.9001 25.2 29.2001 24.9C28.7001 24.7 28.6001 24.4 28.6001 24.3C28.6001 24.1 28.6001 24 28.6001 23.9C28.7001 23.8 28.8001 23.7 29.0001 23.6C29.2001 23.6 29.4001 23.6 29.8001 23.8C30.1001 24.1 30.6001 24.5 31.1001 25.2Z" fill="#020303"/>
<path d="M21.2001 44C20.8001 44.1 20.0001 44.2 19.3001 44.1C18.7001 43.9 18.6001 43.7 18.6001 43.7C18.5001 43.5 18.6001 43.4 18.6001 43.3C18.6001 43.2 18.7001 43 18.9001 42.9C19.1001 42.8 19.3001 42.8 19.7001 43C20.1001 43 20.6001 43.3 21.2001 44Z" fill="#020303"/>
<path d="M45.1003 12C44.9003 12.4 43.5003 12.4 42.4003 12C41.3003 11.6 40.2003 10.7 40.3003 10.3C40.5003 9.9 41.9003 9.9 43.0003 10.3C44.1003 10.7 45.3003 11.5 45.1003 12Z" fill="#276A38"/>
</svg>
