<svg width="64" height="64" viewBox="0 0 64 64" fill="none" xmlns="http://www.w3.org/2000/svg">
<path d="M20.3003 32.2C18.4003 35.1 21.6003 42.5 24.5003 45.4C24.5003 45.4 27.9003 43.2 28.5003 38.7C28.6003 37.8 25.1003 37.3 24.0003 32.6C23.7003 31.5 20.9003 31.3 20.3003 32.2Z" fill="#6A6A89"/>
<path d="M5.70029 14.6L3.30029 21.1L13.6003 29.1L23.3003 26.8L20.2003 24.1L13.0003 19.8L7.20029 14.4L5.70029 14.6Z" fill="#DFDFEF"/>
<path d="M7.3739 15.0746L4.6499 22.5962L5.12 22.7665L7.844 15.2449L7.3739 15.0746Z" fill="#C2C2D9"/>
<path d="M8.62683 15.6592L5.90283 23.1807L6.37293 23.351L9.09693 15.8294L8.62683 15.6592Z" fill="#C2C2D9"/>
<path d="M10.1429 17.9879L7.41895 25.5095L7.88905 25.6798L10.613 18.1582L10.1429 17.9879Z" fill="#C2C2D9"/>
<path d="M11.1415 18.9597L8.41748 26.4813L8.88758 26.6516L11.6116 19.13L11.1415 18.9597Z" fill="#C2C2D9"/>
<path d="M12.8519 21.2796L10.1279 28.8012L10.598 28.9715L13.322 21.4499L12.8519 21.2796Z" fill="#C2C2D9"/>
<path d="M14.308 21.7953L11.584 29.3169L12.0541 29.4871L14.7781 21.9655L14.308 21.7953Z" fill="#C2C2D9"/>
<path d="M16.5023 23.8437L13.7783 31.3653L14.2484 31.5355L16.9724 24.0139L16.5023 23.8437Z" fill="#C2C2D9"/>
<path d="M9.5001 11.1C11.6001 10.9 13.0001 12 14.8001 12.6C16.7001 13.3 18.3001 12.7 21.0001 13.9C24.5001 15.4 26.2001 17.3 28.2001 18.3C37.7001 23.2 36.1001 19.7 45.6001 23.1C56.5001 27 59.6001 38.9 59.6001 38.9L58.0001 41.5C58.0001 41.5 54.6001 36.1 47.3001 35.7C37.5001 35.2 32.4001 41.6 20.2001 38.6C11.9001 36.6 8.2001 31 5.7001 27.3C3.5001 24.1 2.8001 21.9 0.600098 21.5C0.600098 21.5 2.7001 19.5 6.3001 21.5C10.9001 24 13.3001 31.5 21.2001 25.8C21.2001 25.8 15.0001 25.6 11.7001 20.1C9.5001 16.5 6.5001 16.6 4.5001 15.6C3.7001 15.2 2.9001 14.4 2.8001 13.5C2.8001 13.5 3.6001 13.9 4.3001 13.6C5.3001 13.3 6.3001 11.3 9.5001 11.1Z" fill="#8B8AA8"/>
<path d="M18.4 19.2C18.3 18.6 19.6 18.1 20.7 19C21.9 20.1 21.3 21.7 21.3 21.7C20.3 19.3 18.5 20.4 18.4 19.2Z" fill="#A8A8C1"/>
<path d="M28.5 24.6C28.5 24.6 35 22.5 41.9 24C49.9 25.8 52.7 31.9 52.7 31.9C52.7 31.9 48.4 28.4 42.5 26.5C37.5 24.9 28.5 24.6 28.5 24.6Z" fill="#6A6A89"/>
<path d="M9.69998 11.5C9.49998 12.1 10.6 12.8 11.7 13.2C12.8 13.6 14 13.2 14.2 12.6C14.4 12 13.7 11.2 12.6 10.8C11.5 10.4 9.89998 10.9 9.69998 11.5Z" fill="#A8A8C1"/>
<path d="M14.8999 15.4C14.6999 15.9 15.5999 16.6 16.2999 16.9C16.7999 17.1 17.8999 17 18.0999 16.5C18.2999 16 17.4999 15.3 16.9999 15.1C16.3999 14.9 15.0999 14.9 14.8999 15.4Z" fill="#A8A8C1"/>
<path d="M17.9001 14.9C17.8001 15.2 18.3001 15.7 18.7001 15.8C19.0001 15.9 19.8001 15.9 19.9001 15.6C20.0001 15.3 19.4001 14.8 19.1001 14.7C18.8001 14.5 18.0001 14.6 17.9001 14.9Z" fill="#A8A8C1"/>
<path d="M4.3 25.5C4.1 26.1 4.9 27.3 5.4 27.8C6.1 28.4 7 28.2 7.3 27.6C7.5 27 7.4 26.5 6.5 25.8C5.7 25.2 4.5 24.9 4.3 25.5Z" fill="#A8A8C1"/>
<path d="M8.90013 29C8.70013 29.4 9.20013 30.2 9.70013 30.4C10.2001 30.6 10.8001 30.2 11.0001 29.8C11.2001 29.4 10.5001 28.7 10.1001 28.6C9.60014 28.3 9.10013 28.5 8.90013 29Z" fill="#A8A8C1"/>
<path d="M11.0002 31.3C10.8002 31.7 11.3002 32.4 11.8002 32.6C12.3002 32.8 12.3002 32.3 12.4002 31.8C12.6002 31.4 12.5002 30.9 12.0002 30.8C11.5002 30.6 11.2002 30.9 11.0002 31.3Z" fill="#A8A8C1"/>
<path d="M21.5999 27.7C19.6999 29.3 17.8999 28.9 17.8999 28.9C17.8999 28.9 19.0999 29.7 20.4999 29C21.2999 28.6 21.5999 27.7 21.5999 27.7Z" fill="#6A6A89"/>
<path d="M26.3999 35.9C24.4999 38.8 27.6999 46.2 30.5999 49.1C30.5999 49.1 33.9999 46.9 34.5999 42.4C34.6999 41.5 30.8999 41 30.0999 36.3C29.8999 35.1 27.0999 34.9 26.3999 35.9Z" fill="#8B8AA8"/>
<path d="M13.3 32.5C13.1 32.9 13.6 33.6 14.1 33.8C14.6 34 14.6 33.5 14.7 33C14.9 32.6 14.8 32.1 14.3 32C13.9 31.8 13.5 32.1 13.3 32.5Z" fill="#A8A8C1"/>
<path d="M16.7003 32.4C16.6003 32.7 16.9003 33.2 17.2003 33.3C17.5003 33.4 17.5003 33.1 17.7003 32.8C17.8003 32.5 17.7003 32.2 17.4003 32.1C17.1003 31.9 16.8003 32.1 16.7003 32.4Z" fill="#A8A8C1"/>
<path d="M56.0001 34.3C51.0001 39.2 52.0001 46.1 57.6001 49.5C57.6001 49.5 56.7001 47.2 58.0001 45C59.0001 43.4 59.0001 41.2 59.0001 41.2C59.0001 41.2 61.6001 41.9 63.6001 46.6C65.8001 36.2 56.7001 34.1 56.7001 34.1C56.7001 34.1 56.5001 33.8 56.0001 34.3Z" fill="#8B8AA8"/>
<path d="M20.2002 22.9C19.9002 23.7 19.0002 24.2 18.1002 23.9C17.3002 23.6 16.8002 22.7 17.1002 21.8C17.4002 21 18.3002 20.5 19.2002 20.8C20.0002 21.1 20.5002 22 20.2002 22.9Z" fill="white"/>
<path d="M18.3 20.7C17.8 20.8 17.3 21.2 17.1 21.7C17 21.8 17 22 17 22.1C17.2 22.7 17.9 23 18.5 22.8C19.1 22.6 19.4 22 19.2 21.4C19.1 21.1 18.7 20.8 18.3 20.7Z" fill="#04040A"/>
<path d="M18.9003 21.4C18.5003 21.5 18.3003 21.9 18.5003 22.2C18.6003 22.6 19.0003 22.8 19.4003 22.6C19.8003 22.5 20.0003 22.1 19.8003 21.8C19.7003 21.5 19.3003 21.3 18.9003 21.4Z" fill="white"/>
</svg>
