<svg width="64" height="94" viewBox="0 0 64 94" fill="none" xmlns="http://www.w3.org/2000/svg">
<g clip-path="url(#clip0_1_46)">
<g clip-path="url(#clip1_1_46)">
<path d="M51.9001 43.6C52.1001 46.2 51.4001 50.4 48.9001 51.8C45.8001 53.6 39.0001 52.5 37.9001 49.9C37.7001 49.4 36.9001 49.7 37.1001 50.2C38.3001 52.9 44.8001 53.9 48.2001 52.9C51.9001 51.9 52.9001 46.7 53.5001 43.7C53.6001 43.3 51.9001 43.1 51.9001 43.6Z" fill="#F8AA22"/>
<path d="M51.9001 45.4C50.5001 44.4 50.4001 42.9 50.7001 41.1C50.7001 41.2 50.8001 41.4 50.8001 41.5C50.9001 41.6 51.0001 41.7 51.1001 41.8C52.1001 38.5 53.7001 38.6 55.3001 38.5C53.3001 40.3 56.0001 44 53.2001 45.5C52.8001 45.3 52.4001 45.3 51.9001 45.4Z" fill="#B8601F"/>
<path d="M12.8001 39.6C15.5001 38.2 17.1001 40.4 18.3001 41.8C23.1001 47.2 28.2001 47.6 28.3001 47.6C28.3001 47.6 33.5001 47.2 38.3001 41.8C39.5001 40.5 41.1001 38.3 43.8001 39.6C46.5001 41 45.7001 44.4 45.5001 44.9C44.0001 49.3 40.7001 53.7 38.9001 57.5C38.4001 58.6 30.6001 59.9 28.4001 59.9H28.3001C28.3001 59.9 28.3001 59.9 28.2001 59.9C26.0001 59.9 18.2001 58.6 17.7001 57.5C15.9001 53.7 12.6001 49.3 11.1001 44.9C10.9001 44.5 10.1001 41 12.8001 39.6Z" fill="#C3802A"/>
<path d="M28.3001 55.4C32.8001 55.4 36.4001 50.4 36.4001 44.1C36.4001 37.8 32.8001 32.8 28.3001 32.8C23.8001 32.8 20.2001 37.8 20.2001 44.1C20.2001 50.4 23.8001 55.4 28.3001 55.4Z" fill="#FCD09A"/>
<path d="M41.2001 55.1C39.4001 55.1 35.0001 56 33.7001 58.5C33.3001 59.2 43.7001 60.3 44.4001 58.9C45.1001 57.5 44.4001 55.1 41.2001 55.1Z" fill="#D99B49"/>
<path d="M36.2001 28.6C32.7001 28.3 30.9001 30.9 30.6001 34.5C29.8001 43.1 30.2001 55.2 30.4001 58.4C30.6001 61.9 34.7001 59.9 34.9001 58.4C35.5001 51.9 37.5001 42.7 40.3001 34.8C41.6001 30.8 38.3001 28.7 36.2001 28.6Z" fill="#F79D1E"/>
<path d="M29.2001 59.6C29.4001 61 30.9001 61.5 32.0001 60.9C32.1001 61.1 32.3001 61.2 32.5001 61.3C32.7001 61.4 32.9001 61.5 33.2001 61.4C33.6001 61.4 34.1001 61.1 34.3001 60.7C34.5001 60.8 34.7001 60.9 34.9001 61C35.1001 61.1 35.3001 61 35.5001 61C36.3001 60.8 36.7001 60.1 36.8001 59.4C36.8001 58.6 36.4001 57.7 35.7001 57.4C35.3001 57.2 34.5001 57.2 34.2001 57.7C34.0001 57.4 33.8001 57.2 33.5001 57.1C33.2001 57 32.9001 56.9 32.6001 57C32.1001 57.1 31.8001 57.5 31.8001 57.9C31.2001 57.5 30.5001 57.4 30.0001 57.8C29.2001 58.1 29.1001 59 29.2001 59.6Z" fill="#FCD09A"/>
<path d="M15.2001 55.1C17.0001 55.1 21.4001 56 22.7001 58.5C23.1001 59.2 12.7001 60.3 12.0001 58.9C11.3001 57.5 12.0001 55.1 15.2001 55.1Z" fill="#D99B49"/>
<path d="M20.2001 28.6C23.7001 28.3 25.5001 30.9 25.8001 34.5C26.6001 43.1 26.2001 55.2 26.0001 58.4C25.8001 61.9 21.7001 59.9 21.5001 58.4C20.9001 51.9 18.9001 42.7 16.1001 34.8C14.8001 30.8 18.1001 28.7 20.2001 28.6Z" fill="#F79D1E"/>
<path d="M26.6001 57.7C26.0001 57.3 25.3001 57.4 24.8001 57.8C24.7001 57.4 24.5001 57 24.0001 56.9C23.7001 56.9 23.4001 56.9 23.1001 57C22.8001 57.1 22.6001 57.4 22.4001 57.6C22.1001 57.1 21.3001 57.1 20.9001 57.3C20.2001 57.7 19.8001 58.5 19.8001 59.3C19.8001 60 20.3001 60.8 21.1001 60.9C21.3001 61 21.5001 61 21.7001 60.9C21.9001 60.8 22.1001 60.7 22.3001 60.6C22.5001 61 22.9001 61.3 23.4001 61.3C23.6001 61.3 23.9001 61.3 24.1001 61.2C24.3001 61.1 24.5001 60.9 24.6001 60.8C25.7001 61.4 27.2001 61 27.4001 59.5C27.4001 59 27.2001 58.1 26.6001 57.7Z" fill="#FCD09A"/>
<path d="M9.70011 18C9.60011 15.3 10.8001 13.2 13.2001 11.8C12.7001 11.4 12.0001 11.4 11.3001 11.6C11.8001 8.40001 13.1001 6.40001 15.6001 5.80001C14.9001 5.60001 14.1001 5.50001 13.3001 5.60001C14.8001 2.60001 17.4001 1.40001 21.1001 2.20001C21.0001 1.80001 20.5001 1.40001 19.7001 1.00001C21.4001 0.300005 23.2001 0.400006 25.2001 1.20001C25.5001 0.600006 24.8001 -0.499994 24.3001 -1.19999C26.1001 -1.29999 27.5001 -0.799995 28.2001 0.600005C29.0001 -0.799995 30.3001 -1.29999 32.1001 -1.19999C31.6001 -0.599994 30.9001 0.500006 31.2001 1.20001C33.1001 0.500006 35.0001 0.300005 36.7001 1.00001C35.9001 1.40001 35.4001 1.80001 35.3001 2.20001C39.1001 1.40001 41.7001 2.60001 43.1001 5.60001C42.3001 5.50001 41.6001 5.60001 40.8001 5.80001C43.2001 6.40001 44.6001 8.50001 45.1001 11.6C44.4001 11.4 43.7001 11.4 43.2001 11.8C45.6001 13.2 46.8001 15.3 46.7001 18C46.1001 17.9 45.5001 17.7 44.9001 17.7C46.9001 22.4 46.6001 25.7 45.0001 28.2C44.8001 27.6 44.4001 27 43.6001 26.5C43.6001 27.6 43.1001 28.6 42.1001 29.5C41.9001 29.1 41.6001 28.8 41.3001 28.5C40.8001 30.4 39.5001 32.3 37.9001 34C38.0001 33.2 37.7001 32.6 37.2001 32.2C35.9001 35.9 31.3001 38.6 27.9001 39.4C27.2001 37.9 25.9001 36.7 24.1001 35.7C24.1001 36.2 24.3001 36.6 24.6001 37C22.7001 36.7 20.1001 34.2 19.5001 32.2C19.0001 32.6 18.7001 33.2 18.8001 34C17.1001 32.2 15.9001 30.4 15.4001 28.5C15.1001 28.8 14.8001 29.1 14.6001 29.5C13.6001 28.6 13.1001 27.5 13.1001 26.5C12.3001 27 11.9001 27.6 11.7001 28.2C10.1001 25.8 9.80011 22.4 11.8001 17.7C10.9001 17.7 10.3001 17.8 9.70011 18Z" fill="#B8601F"/>
<path d="M23.5001 9.20001C25.7001 8.80001 27.1001 9.40001 28.2001 9.90001C29.3001 9.30001 30.7001 8.70001 32.9001 9.20001C40.3001 10.7 33.6001 28.8 28.2001 29H28.1001C22.8001 28.8 16.1001 10.8 23.5001 9.20001Z" fill="#F79D1E"/>
<path d="M32.5001 15.7C33.2001 15.7 33.8001 15.1 33.8001 14.4C33.8001 13.7 33.2001 13.1 32.5001 13.1C31.8001 13.1 31.2001 13.7 31.2001 14.4C31.2001 15.1 31.8001 15.7 32.5001 15.7Z" fill="#FCD09A"/>
<path d="M32.4001 15.4C32.7001 15.4 33.0001 15 33.0001 14.5C33.0001 14 32.7001 13.6 32.4001 13.6C32.1001 13.6 31.8001 14 31.8001 14.5C31.8001 15 32.1001 15.4 32.4001 15.4Z" fill="#423C39"/>
<path d="M31.8001 14.7C32.0001 14.7 32.2001 14.5 32.2001 14.3C32.2001 14.1 32.0001 13.9 31.8001 13.9C31.6001 13.9 31.4001 14.1 31.4001 14.3C31.4001 14.5 31.6001 14.7 31.8001 14.7Z" fill="white"/>
<path d="M28.2001 30.9C30.3001 30.9 32.0001 29.6 32.0001 28C32.0001 26.4 30.3001 25.1 28.2001 25.1C26.1001 25.1 24.4001 26.4 24.4001 28C24.4001 29.6 26.1001 30.9 28.2001 30.9Z" fill="#FCD09A"/>
<path d="M23.9001 15.7C24.6001 15.7 25.2001 15.1 25.2001 14.4C25.2001 13.7 24.6001 13.1 23.9001 13.1C23.2001 13.1 22.6001 13.7 22.6001 14.4C22.6001 15.1 23.2001 15.7 23.9001 15.7Z" fill="#FCD09A"/>
<path d="M24.0001 15.4C24.3001 15.4 24.6001 15 24.6001 14.5C24.6001 14 24.3001 13.6 24.0001 13.6C23.7001 13.6 23.4001 14 23.4001 14.5C23.4001 15 23.7001 15.4 24.0001 15.4Z" fill="#423C39"/>
<path d="M23.4001 14.7C23.6001 14.7 23.8001 14.5 23.8001 14.3C23.8001 14.1 23.6001 13.9 23.4001 13.9C23.2001 13.9 23.0001 14.1 23.0001 14.3C23.0001 14.5 23.2001 14.7 23.4001 14.7Z" fill="white"/>
<path d="M32.7001 17C33.5001 17 34.1001 16.6 34.1001 16.1C34.1001 15.6 33.5001 15.2 32.7001 15.2C31.9001 15.2 31.3001 15.6 31.3001 16.1C31.3001 16.6 31.9001 17 32.7001 17Z" fill="#F79D1E"/>
<path d="M23.6001 17C24.4001 17 25.0001 16.6 25.0001 16.1C25.0001 15.6 24.4001 15.2 23.6001 15.2C22.8001 15.2 22.2001 15.6 22.2001 16.1C22.2001 16.6 22.8001 17 23.6001 17Z" fill="#F79D1E"/>
<path d="M19.2001 10.6C17.5001 10.6 16.9001 8.9 16.9001 8.8C16.9001 8.7 16.9001 8.7 16.8001 8.6L16.7001 8.5C16.6001 8.5 16.6001 8.5 16.5001 8.5C16.4001 8.5 16.4001 8.5 16.3001 8.5C16.1001 8.6 15.8001 8.9 16.0001 9.4C16.3001 10.3 17.4001 11.6 19.4001 11.5C19.3001 11.2 19.2001 10.9 19.2001 10.6Z" fill="#FCD09A"/>
<path d="M19.3001 7.8C19.4001 7.8 19.4001 7.8 19.3001 7.8C19.4001 7.6 19.4001 7.5 19.5001 7.3C19.2001 7.6 17.9001 8.6 16.6001 8.4C16.6001 8.4 16.9001 10.4 19.3001 10.7C19.0001 9.8 19.1001 8.8 19.3001 7.8Z" fill="#F79D1E"/>
<path d="M37.2001 10.6C38.9001 10.6 39.5001 8.9 39.5001 8.8C39.5001 8.7 39.5001 8.7 39.6001 8.6L39.7001 8.5C39.8001 8.5 39.8001 8.5 39.9001 8.5C40.0001 8.5 40.0001 8.5 40.1001 8.5C40.3001 8.6 40.6001 8.9 40.4001 9.4C40.1001 10.3 39.0001 11.6 37.0001 11.5C37.1001 11.2 37.2001 10.9 37.2001 10.6Z" fill="#FCD09A"/>
<path d="M37.1001 7.8C37.0001 7.6 37.0001 7.5 36.9001 7.3C37.2001 7.6 38.5001 8.6 39.8001 8.4C39.8001 8.4 39.5001 10.4 37.1001 10.7C37.4001 9.8 37.4001 8.8 37.1001 7.8Z" fill="#F79D1E"/>
<path d="M29.6001 29.4H26.8001C26.4001 29.4 26.1001 29.3 25.8001 29C25.5001 28.7 25.4001 28.4 25.4001 28C25.0001 26.1 24.7001 24 25.1001 21.9C25.1001 21.5 25.2001 21.2 25.5001 20.9C25.8001 20.6 26.1001 20.5 26.5001 20.5H29.9001C30.3001 20.5 30.6001 20.6 30.9001 20.9C31.2001 21.2 31.3001 21.5 31.3001 21.9C31.7001 23.9 31.5001 26 31.1001 28C31.1001 28.4 31.0001 28.7 30.7001 29C30.3001 29.2 30.0001 29.4 29.6001 29.4Z" fill="#FCD09A"/>
<path d="M29.3001 28.3H27.1001C26.8001 28.3 26.5001 28.2 26.3001 28C26.1001 27.8 26.0001 27.5 26.0001 27.2C25.7001 25.7 25.4001 24 25.7001 22.3C25.7001 22 25.8001 21.7 26.0001 21.5C26.2001 21.3 26.5001 21.2 26.8001 21.2H29.5001C29.8001 21.2 30.1001 21.3 30.3001 21.5C30.5001 21.7 30.6001 22 30.6001 22.3C30.9001 23.9 30.7001 25.6 30.4001 27.2C30.4001 27.5 30.3001 27.8 30.1001 28C29.9001 28.2 29.6001 28.3 29.3001 28.3Z" fill="#7A3547"/>
<path d="M25.2001 21.9H27.4001L26.7001 23.7C26.7001 23.8 26.6001 23.8 26.6001 23.9C26.5001 23.9 26.5001 24 26.4001 24C26.3001 24 26.3001 24 26.2001 23.9C26.1001 23.9 26.1001 23.8 26.1001 23.7L25.2001 21.9Z" fill="white"/>
<path d="M31.3001 21.9H29.1001L29.8001 23.7C29.8001 23.8 29.9001 23.8 29.9001 23.9C30.0001 23.9 30.0001 24 30.1001 24C30.2001 24 30.2001 24 30.3001 23.9C30.4001 23.9 30.4001 23.8 30.4001 23.7L31.3001 21.9Z" fill="white"/>
<path d="M27.1001 27.1C27.1001 27.1 27.1001 27 27.0001 27H26.9001H26.8001L26.7001 27.1L26.3001 27.9C26.4001 28 26.5001 28.1 26.7001 28.2C26.9001 28.3 27.0001 28.3 27.2001 28.3H27.6001L27.1001 27.1Z" fill="white"/>
<path d="M29.4001 27.1L29.5001 27H29.6001H29.7001L29.8001 27.1L30.2001 27.9C30.1001 28 30.0001 28.1 29.8001 28.2C29.6001 28.3 29.5001 28.3 29.3001 28.3H28.9001L29.4001 27.1Z" fill="white"/>
<path d="M34.8001 22.2C34.2001 21.8 33.6001 21.5 33.0001 21.2C33.1001 21 33.1001 20.7 33.1001 20.5C34.2001 20.5 35.2001 20.7 36.2001 21C38.5001 21.8 39.7001 22.8 39.7001 22.8C39.7001 22.8 38.5001 21.7 36.3001 20.9C35.3001 20.6 34.2001 20.3 33.1001 20.3C33.1001 20 33.0001 19.7 33.0001 19.5C33.7001 19.3 34.4001 19.3 35.1001 19.3C36.5001 19.3 38.0001 19.5 39.4001 19.9C38.0001 19.4 36.5001 19.2 35.0001 19.2C34.3001 19.2 33.7001 19.2 33.0001 19.3C32.4001 16.9 30.2001 16.3 29.4001 15.9C29.6001 16.6 26.9001 16.6 27.1001 15.9C26.3001 16.3 24.2001 16.8 23.5001 19.2C22.8001 19.1 22.2001 19.1 21.5001 19.1C20.0001 19.1 18.5001 19.4 17.1001 19.8C18.5001 19.4 19.9001 19.2 21.4001 19.2C22.1001 19.2 22.8001 19.3 23.5001 19.4C23.4001 19.7 23.4001 20 23.4001 20.2C22.3001 20.3 21.3001 20.5 20.3001 20.8C18.0001 21.6 16.9001 22.7 16.9001 22.7C16.9001 22.7 18.1001 21.7 20.4001 20.9C21.4001 20.6 22.4001 20.4 23.5001 20.4C23.5001 20.7 23.5001 20.9 23.6001 21.1C23.0001 21.4 22.4001 21.7 21.8001 22C19.9001 23.2 19.2001 24.4 19.2001 24.4C19.2001 24.4 20.0001 23.3 21.8001 22.1C22.4001 21.8 22.9001 21.5 23.6001 21.2C23.7001 21.4 23.9001 21.6 24.1001 21.8C24.3001 22 24.5001 22.1 24.8001 22.2C27.1001 23 27.7001 21.5 28.4001 21.5C29.1001 21.5 29.7001 23 32.0001 22.2C32.2001 22.1 32.5001 22 32.7001 21.8C32.9001 21.6 33.0001 21.4 33.2001 21.2C33.8001 21.4 34.4001 21.7 35.0001 22.1C36.9001 23.3 37.6001 24.4 37.6001 24.4C37.6001 24.4 36.7001 23.4 34.8001 22.2Z" fill="#FCD09A"/>
<path d="M31.5001 18C31.5001 18 30.5001 15.6 29.9001 15.3C29.6001 15.1 29.1001 14.9 28.2001 14.9C27.3001 14.9 26.8001 15.1 26.5001 15.3C25.9001 15.6 24.9001 18 24.9001 18L28.2001 19L31.5001 18Z" fill="#D99B49"/>
<path d="M28.2001 18.7C27.3001 18.7 24.9001 17.8 24.9001 17.8C24.6001 19.1 28.2001 21.1 28.2001 21.1C28.2001 21.1 31.8001 19.1 31.5001 17.8C31.5001 17.8 29.2001 18.7 28.2001 18.7Z" fill="#7A3547"/>
<path d="M26.6001 12.4C26.7001 12.1 26.5001 11.8 26.1001 11.6C25.7001 11.4 25.3001 11.5 25.1001 11.8C25.0001 12.1 25.2001 12.4 25.6001 12.6C26.0001 12.8 26.5001 12.7 26.6001 12.4Z" fill="#FFD58A"/>
<path d="M30.9001 12.6C31.3001 12.4 31.5001 12.1 31.4001 11.8C31.3001 11.5 30.8001 11.4 30.4001 11.6C30.0001 11.8 29.8001 12.1 29.9001 12.4C30.0001 12.7 30.4001 12.8 30.9001 12.6Z" fill="#FFD58A"/>
</g>
<rect y="74" width="20" height="20" rx="5" fill="white"/>
<rect x="22" y="74" width="20" height="20" rx="5" fill="white"/>
<rect x="44" y="74" width="20" height="20" rx="5" fill="white"/>
</g>
<defs>
<clipPath id="clip0_1_46">
<rect width="64" height="94" fill="white"/>
</clipPath>
<clipPath id="clip1_1_46">
<rect width="64" height="64" fill="white"/>
</clipPath>
</defs>
</svg>
